<svg xmlns="http://www.w3.org/2000/svg" width="557.354" height="554.903" viewBox="0 0 557.354 554.903">
  <g id="rearlight_explain" transform="translate(-3721 6671)">
    <path id="パス_15205" data-name="パス 15205" d="M0,0H188.153V189.153H0Z" transform="translate(4002.287 -6671) rotate(45)" fill="#c6edd7"/>
    <path id="パス_15206" data-name="パス 15206" d="M0,0H193.153V190.153H0Z" transform="translate(3855.458 -6530.973) rotate(45)" fill="#e2ebe6"/>
    <path id="パス_15207" data-name="パス 15207" d="M0,0H192.153V190.153H0Z" transform="translate(4001.58 -6386.428) rotate(45)" fill="#f0f0f0"/>
    <path id="パス_15208" data-name="パス 15208" d="M0,0H188.959V188.959H0Z" transform="translate(4144.739 -6529.35) rotate(45)" fill="#ced8d2"/>
    <path id="パス_15209" data-name="パス 15209" d="M62.265,5.436V3.959H57.422V2.395h4.843V.61h1.819V2.395H69.5V3.959H64.084V5.436h4.57v5.581h-4.6A7.307,7.307,0,0,1,63.39,13.9a21.329,21.329,0,0,0,6.328,1.978L68.8,17.714a25.907,25.907,0,0,1-6.39-2.443,10.291,10.291,0,0,1-4.57,2.584l-1.028-1.547a7.927,7.927,0,0,0,4.034-1.986q-1.257-.835-2.733-2.03l1.266-1.055a24.4,24.4,0,0,0,2.452,1.775,5.9,5.9,0,0,0,.483-2H57.765V5.436Zm0,1.477H59.549V9.54h2.716Zm1.819,0V9.54h2.769V6.912ZM56.429,4.847V17.714H54.557V8.7q-.571.976-1.477,2.215l-.9-1.978a20.133,20.133,0,0,0,2.452-4.658q.6-1.564,1.222-3.788l1.89.483Q57.071,3.238,56.429,4.847ZM87.91,1.524V15.578a2.078,2.078,0,0,1-.325,1.3,2.052,2.052,0,0,1-1.635.5q-1.371,0-2.435-.105l-.343-1.89a19.18,19.18,0,0,0,2.312.176q.369,0,.439-.167a.976.976,0,0,0,.044-.334V11.588H81.661V16.9h-1.89V11.588H75.649A17.516,17.516,0,0,1,75.3,14.62a8.568,8.568,0,0,1-1.45,3.1L72.195,16.36a7.4,7.4,0,0,0,1.345-3.278,15.5,15.5,0,0,0,.185-2.514V1.524Zm-12.243,1.7v2.54h4.1V3.221Zm0,4.14v2.61h4.1V7.36Zm10.3,2.61V7.36H81.661v2.61Zm0-4.21V3.221H81.661v2.54Zm18.561.686a27.584,27.584,0,0,0,4.957,1.239l-.9,1.626q-.51-.114-1.151-.272v8.675h-1.854V13.891H99.975a5.842,5.842,0,0,1-.967,2.285,7.064,7.064,0,0,1-1.687,1.591L95.959,16.36a4.716,4.716,0,0,0,2.074-2.426,7.085,7.085,0,0,0,.334-2.347V9.276q-.51.141-1.239.281L96.117,8.081A20.379,20.379,0,0,0,101.346,6.6,13.155,13.155,0,0,1,98.34,3.854H96.82V2.342h5V.61h1.907V2.342h5.291V3.854h-1.793A14.638,14.638,0,0,1,104.528,6.446Zm-1.6,1.028A20.616,20.616,0,0,1,100.2,8.7V9.47h5.379V8.512A22.594,22.594,0,0,1,102.928,7.475ZM102.9,5.7a12.846,12.846,0,0,0,2.153-1.846h-4.649A10.307,10.307,0,0,0,102.9,5.7Zm2.681,5.212H100.2v.378q0,.554-.035,1.09h5.414ZM95.256,4.75A20.637,20.637,0,0,0,92.54,2.017L93.884.751a13.845,13.845,0,0,1,2.733,2.628Zm-.58,4.535A20.156,20.156,0,0,0,91.96,6.464L93.3,5.146a13.805,13.805,0,0,1,2.8,2.733Zm-2.5,6.917a30.753,30.753,0,0,0,3.56-6.179l1.477,1.187a33.788,33.788,0,0,1-3.4,6.46ZM114.071,1.867h6.873l1.23,1.046q-.87,3.05-1.441,4.588a16.585,16.585,0,0,1,4.034,1.2q.105-1.134.105-2.224,0-.58-.035-1.362l1.925.2a39.921,39.921,0,0,1-.2,4.228q1.09.563,2.285,1.327l-.756,1.872q-.844-.615-1.828-1.222a8.522,8.522,0,0,1-2.162,4.061,9.391,9.391,0,0,1-2.883,1.828l-1.1-1.477a7.356,7.356,0,0,0,3.182-2.355,7.969,7.969,0,0,0,1.2-2.988,15.539,15.539,0,0,0-4.359-1.459,25.769,25.769,0,0,1-2.874,5.941,3.078,3.078,0,0,1-2.47,1.529,2.268,2.268,0,0,1-2.057-1.266,4.558,4.558,0,0,1-.554-2.3,5.267,5.267,0,0,1,.853-2.953,5.767,5.767,0,0,1,3.111-2.259,9.25,9.25,0,0,1,2.716-.439A35.464,35.464,0,0,0,120.1,3.6h-6.029Zm4.157,7.189a5.364,5.364,0,0,0-1.942.431A3.747,3.747,0,0,0,114,12.95a2.693,2.693,0,0,0,.29,1.283q.22.431.527.431Q116.049,14.664,118.228,9.057Zm13.639-6.645H145.64l1.134.958a10.86,10.86,0,0,1-1.283,3.067,8.9,8.9,0,0,1-4.447,3.48l-1.107-1.512a7.019,7.019,0,0,0,3.4-2.206,5.54,5.54,0,0,0,1.116-1.986H131.867Zm5.634,3.8h2.013V7.721a14.422,14.422,0,0,1-.756,5.256,7.691,7.691,0,0,1-3.727,3.832l-1.45-1.529a6.913,6.913,0,0,0,2.786-2.162,5.4,5.4,0,0,0,.888-2.065A18.065,18.065,0,0,0,137.5,7.7Zm25.2-2.865,1.371,1.134q-.993,5.555-3.647,8.49a15.644,15.644,0,0,1-7.277,4.131l-1.1-1.784a13.5,13.5,0,0,0,6.785-3.639,12.773,12.773,0,0,0,3.023-6.53H155.93A15.7,15.7,0,0,1,151.6,9.61l-1.441-1.459a14.346,14.346,0,0,0,3.3-2.83,12.755,12.755,0,0,0,2.25-4.192l1.907.519a15.955,15.955,0,0,1-.686,1.7Zm6.467-2h2.048v9.615h-2.048Zm9.026-.185h2.048V7.448a16.8,16.8,0,0,1-.536,4.931,5.713,5.713,0,0,1-1.222,2.2,9.995,9.995,0,0,1-5.168,2.558l-1.011-1.8q3.894-.791,4.992-2.628a6.779,6.779,0,0,0,.835-2.953q.062-.826.062-2.285Zm10.624.817h1.978v3.2a23.752,23.752,0,0,1-.686,6.715,8.77,8.77,0,0,1-3.8,4.676l-1.345-1.564a8.934,8.934,0,0,0,2.821-2.918,9.282,9.282,0,0,0,.905-3.419q.123-1.213.123-3.454Zm4.5-.51h1.978V13.961a9.4,9.4,0,0,0,3.067-2.575,12.374,12.374,0,0,0,2.153-4.333l1.547,1.494A13.809,13.809,0,0,1,199.652,13a13.086,13.086,0,0,1-5.045,3.665l-1.292-1.116ZM96.5,33.08h4.737q.782-1.248,1.187-2.013l1.96.281q-.264.475-.932,1.547l-.114.185h6.2v1.731h-7.365a33.932,33.932,0,0,1-2.2,2.742A6.022,6.022,0,0,1,103,36.561a2.7,2.7,0,0,1,2.786,2.136q2.25-.747,4.588-1.477l.756,1.705-.308.088-.87.229q-2.461.668-3.937,1.143.105,1.143.149,2.953l-1.925.105q-.009-1.046-.035-2.268V41q-4.043,1.38-4.043,2.777,0,.721,1.037.984a16.856,16.856,0,0,0,3.586.255,48.4,48.4,0,0,0,5-.272L110,46.615q-2.54.193-5.265.193a15.629,15.629,0,0,1-4.772-.51,2.3,2.3,0,0,1-1.749-2.276,3.163,3.163,0,0,1,1.239-2.452A15.347,15.347,0,0,1,103.97,39.3a1.985,1.985,0,0,0-.466-.949,1.2,1.2,0,0,0-.861-.308,5.174,5.174,0,0,0-2.188.659,16.9,16.9,0,0,0-3.489,2.435L95.8,39.8a25.633,25.633,0,0,0,4.28-4.992H96.5Zm30.479,2.408V42.4H119.63V35.488Zm-5.528,1.6V40.8h3.691V37.088Zm9.466-5.52V47.617h-1.978V46.466H117.705v1.151h-1.96V31.568Zm-13.21,1.714v11.4h11.232v-11.4Zm21.672,9.51a42.471,42.471,0,0,1-4.4,1.608l-.615-1.819q.483-.114,1.046-.264V32.983h1.819V41.79q1.072-.343,2.153-.738V30.61h1.854v17.1h-1.854Zm8.534-.633a15.458,15.458,0,0,0,3.9,3.5l-1.037,1.907a17.721,17.721,0,0,1-3.964-3.806,15.522,15.522,0,0,1-4.192,3.823l-1.283-1.714a13.054,13.054,0,0,0,4.307-3.823,19.368,19.368,0,0,1-1.45-3.41,26.472,26.472,0,0,1-1.169-4.825l-.018-.105h-1.2V31.92h8.42l.888.976A29.81,29.81,0,0,1,147.912,42.159ZM146.8,40.349a21.151,21.151,0,0,0,2.268-6.645H144.8A22.114,22.114,0,0,0,146.8,40.349Z" transform="translate(3875.845 -6544.854)" fill="#343232"/>
    <path id="パス_15210" data-name="パス 15210" d="M-24.773-56.362q10.767,0,16.68,9.331,4.956,7.793,4.956,20.542,0,11.655-4.2,19.209Q-13.187,3.281-24.876,3.281a18.655,18.655,0,0,1-16.372-8.75q-5.3-7.861-5.3-21.021,0-13.672,5.674-21.636A18.726,18.726,0,0,1-24.773-56.362Zm-.1,7.349q-5.537,0-8.75,6.084-3.11,5.947-3.11,16.44,0,9.81,2.837,15.654Q-30.652-4.2-24.808-4.2q5.127,0,8.306-5.332,3.555-5.981,3.555-16.953,0-10.425-3.076-16.372Q-19.236-49.014-24.876-49.014ZM4.334,1.743V-5.981Q7.581-16.064,22.039-25.7l1.88-1.265a46.463,46.463,0,0,0,8.545-6.768,9.431,9.431,0,0,0,2.6-6.357,8.067,8.067,0,0,0-1.88-5.332q-2.8-3.384-8.374-3.384-8.306,0-14.937,6.938l-5.879-5.4a21.52,21.52,0,0,1,5.537-4.785,28.935,28.935,0,0,1,15.313-4.17,24.447,24.447,0,0,1,11.382,2.5,15.921,15.921,0,0,1,6.426,5.947,14.938,14.938,0,0,1,2.085,7.69A14.771,14.771,0,0,1,40.6-30.044q-2.769,3.11-10.356,8.271L28.055-20.3q-8.032,5.435-10.6,8.066a18.846,18.846,0,0,0-4.17,5.776H45.281v8.2Z" transform="translate(4211.312 -6373.018)" fill="#dce6e0"/>
    <path id="パス_15211" data-name="パス 15211" d="M-24.773-56.362q10.767,0,16.68,9.331,4.956,7.793,4.956,20.542,0,11.655-4.2,19.209Q-13.187,3.281-24.876,3.281a18.655,18.655,0,0,1-16.372-8.75q-5.3-7.861-5.3-21.021,0-13.672,5.674-21.636A18.726,18.726,0,0,1-24.773-56.362Zm-.1,7.349q-5.537,0-8.75,6.084-3.11,5.947-3.11,16.44,0,9.81,2.837,15.654Q-30.652-4.2-24.808-4.2q5.127,0,8.306-5.332,3.555-5.981,3.555-16.953,0-10.425-3.076-16.372Q-19.236-49.014-24.876-49.014ZM14.69-31.65h4.751A18.953,18.953,0,0,0,29.114-33.8q4.478-2.632,4.478-7.212a6.914,6.914,0,0,0-3.281-6.016,12.729,12.729,0,0,0-7.246-1.948q-7.861,0-15.107,6.016L3-49.082A32.068,32.068,0,0,1,23.68-56.123q7.964,0,13.091,3.281a12.722,12.722,0,0,1,6.187,11.313,12.693,12.693,0,0,1-4.272,9.6,15.828,15.828,0,0,1-8.75,3.862v.273Q36.976-26.626,40.7-23.14a12.633,12.633,0,0,1,3.862,9.673q0,8.818-7.144,13.193Q32.054,3.008,23.338,3.008,9.6,3.008,1.053-5.4l5.161-6.152a21.1,21.1,0,0,0,7.041,4.785,25.231,25.231,0,0,0,10.151,2.29q5.537,0,8.647-2.324,3.008-2.222,3.008-6.8,0-6.289-6.05-8.921A24.324,24.324,0,0,0,19.236-24.3H14.69Z" transform="translate(3999.781 -6150.004)" fill="#fffcfc"/>
    <path id="パス_15212" data-name="パス 15212" d="M-24.773-56.362q10.767,0,16.68,9.331,4.956,7.793,4.956,20.542,0,11.655-4.2,19.209Q-13.187,3.281-24.876,3.281a18.655,18.655,0,0,1-16.372-8.75q-5.3-7.861-5.3-21.021,0-13.672,5.674-21.636A18.726,18.726,0,0,1-24.773-56.362Zm-.1,7.349q-5.537,0-8.75,6.084-3.11,5.947-3.11,16.44,0,9.81,2.837,15.654Q-30.652-4.2-24.808-4.2q5.127,0,8.306-5.332,3.555-5.981,3.555-16.953,0-10.425-3.076-16.372Q-19.236-49.014-24.876-49.014ZM26.893-55.3h10.63v36.675H47.674v7.28H37.522V1.743H28.978V-11.348H.574V-18.56Zm2.085,36.675V-34.863q0-5.571.479-12.681h-.273a71.637,71.637,0,0,1-5.674,10.356L10.521-18.628Z" transform="translate(3779.871 -6371.141)" fill="#f0f7f3"/>
    <path id="パス_15213" data-name="パス 15213" d="M100.428,11.658a19.042,19.042,0,0,1,2.821,1.951l-1,1.635a20.827,20.827,0,0,0-1.819-1.837v4.307h-1.8V13.021A13.542,13.542,0,0,1,95.8,16.668l-1.028-1.661a12.07,12.07,0,0,0,3.261-3.454H95.26V10.006h3.366V8.292H94.917V6.675h1.925A24.921,24.921,0,0,0,96.2,4.24h-.94V2.605h3.331v-2h1.872v2h3.19V4.24h-.94a15.4,15.4,0,0,1-.809,2.435h2.013V8.292h-3.489v1.714h3.164v1.547h-3.164ZM97.949,4.24a22.269,22.269,0,0,1,.58,2.435h1.74a20.591,20.591,0,0,0,.694-2.435Zm8.271,4.271a27.336,27.336,0,0,1-.422,5.054,12.92,12.92,0,0,1-1.591,4.324l-1.45-1.327a10.406,10.406,0,0,0,1.336-3.885,32.7,32.7,0,0,0,.316-5.027V2.14l.536-.053a24.931,24.931,0,0,0,5.6-1.2L111.7,2.412a29.882,29.882,0,0,1-5.467,1.222V6.675h5.9V8.512h-2.013v9.2h-1.819v-9.2Zm9.236-4.772h4.1q.246-1.09.554-2.821l1.986.246q-.264,1.362-.562,2.575h5.854V5.488h-6.267a67.536,67.536,0,0,1-3.885,11.646l-1.942-.686a69.968,69.968,0,0,0,3.85-10.96h-3.691Zm15.557,12.929a25.061,25.061,0,0,1-3.2.185,14.482,14.482,0,0,1-4.342-.492,2.785,2.785,0,0,1-.958-.545,2.316,2.316,0,0,1-.773-1.793,2.96,2.96,0,0,1,.721-1.969l1.564.923a1.187,1.187,0,0,0-.272.756.879.879,0,0,0,.65.923,9.789,9.789,0,0,0,2.83.316,24.2,24.2,0,0,0,3.56-.264Zm-8.244-8.71a70.373,70.373,0,0,1,7.541-.422L130.4,9.32a72.4,72.4,0,0,0-7.374.378Zm22.279-.993h2V11.79a25.682,25.682,0,0,1,4.21,2.391l-1.011,1.644a31.729,31.729,0,0,0-3.2-2.057,3.375,3.375,0,0,1-1.011,2.391,4.105,4.105,0,0,1-2.856.923,4.975,4.975,0,0,1-2.927-.809,2.584,2.584,0,0,1-1.125-2.232,2.749,2.749,0,0,1,1.415-2.408,5.132,5.132,0,0,1,2.813-.7,8.058,8.058,0,0,1,1.7.193Zm0,5.959a6.078,6.078,0,0,0-1.978-.36,2.883,2.883,0,0,0-1.468.325,1.27,1.27,0,0,0-.712,1.125,1.335,1.335,0,0,0,1.02,1.257,3.449,3.449,0,0,0,1.222.193,1.714,1.714,0,0,0,1.644-.967,2.572,2.572,0,0,0,.272-1.213ZM135.616,3.6h3.357q.448-1.521.721-2.681l1.925.237q-.352,1.292-.721,2.443h3.208V5.365h-3.779a32.807,32.807,0,0,1-3.691,7.629L135,12.063a31.446,31.446,0,0,0,3.384-6.7h-2.769Zm14.678,4.28a26.6,26.6,0,0,0-4.482-3.955l1.16-1.266a25.619,25.619,0,0,1,4.588,3.788ZM53.209,31.349h2.048v9.615H53.209Zm9.026-.185h2.048v6.284a16.8,16.8,0,0,1-.536,4.931,5.713,5.713,0,0,1-1.222,2.2,9.995,9.995,0,0,1-5.168,2.558l-1.011-1.8q3.894-.791,4.992-2.628a6.779,6.779,0,0,0,.835-2.953q.062-.826.062-2.285Zm6.959,1.248H82.967l1.134.958a10.86,10.86,0,0,1-1.283,3.067,8.9,8.9,0,0,1-4.447,3.48l-1.107-1.512a7.019,7.019,0,0,0,3.4-2.206,5.54,5.54,0,0,0,1.116-1.986H69.194Zm5.634,3.8h2.013v1.512a14.422,14.422,0,0,1-.756,5.256,7.691,7.691,0,0,1-3.727,3.832l-1.45-1.529a6.913,6.913,0,0,0,2.786-2.162,5.4,5.4,0,0,0,.888-2.065,18.065,18.065,0,0,0,.246-3.349ZM89.1,31.885h11.593v1.8H89.1Zm-1.257,4.307h14.634a15.619,15.619,0,0,1-1.6,5.994,7.761,7.761,0,0,1-2.285,2.593,15.322,15.322,0,0,1-6.75,2.268l-.888-1.784a12.856,12.856,0,0,0,5.985-1.793,7.163,7.163,0,0,0,3.085-5.476H87.843Zm25.144,10.74V37.914a27.676,27.676,0,0,1-6.1,3.023l-1.063-1.784a26.433,26.433,0,0,0,6.829-3.375,27.951,27.951,0,0,0,5.133-4.649l1.7,1.063a31.927,31.927,0,0,1-4.447,4.21V46.932Zm11.547-15.82h2.048v5.045a60.847,60.847,0,0,1,8.692,3.3l-.984,1.9a60.447,60.447,0,0,0-7.708-3.19V47.1h-2.048ZM142.6,33.563h4.008a5.833,5.833,0,0,1,2.707.536,3.09,3.09,0,0,1,.984.817,2.823,2.823,0,0,1,.615,1.811,2.582,2.582,0,0,1-1.046,2.18,3.9,3.9,0,0,1-1.942.6v.123a3.02,3.02,0,0,1,1.758,1.389A41.1,41.1,0,0,1,151.76,44.9h-2.408a19.379,19.379,0,0,0-1.89-3.683,2.467,2.467,0,0,0-2.057-.94h-.773V44.9H142.6Zm2.03,1.652v3.437h1.477a3.576,3.576,0,0,0,1.907-.448,1.511,1.511,0,0,0,.756-1.371q0-1.617-2.522-1.617Zm2.215-4.711a8.282,8.282,0,0,1,4.192,1.143,8.866,8.866,0,0,1,2.874,2.619,8.434,8.434,0,0,1,1.556,4.913,8.313,8.313,0,0,1-1.143,4.21,8.866,8.866,0,0,1-2.619,2.874,8.447,8.447,0,0,1-4.922,1.556,8.3,8.3,0,0,1-4.2-1.143,8.866,8.866,0,0,1-2.874-2.619,8.447,8.447,0,0,1-1.556-4.922,8.337,8.337,0,0,1,.853-3.665,8.834,8.834,0,0,1,3.647-3.867A8.344,8.344,0,0,1,146.847,30.5Zm-.062.826a7.5,7.5,0,0,0-3.683.967,7.993,7.993,0,0,0-2.6,2.285,7.6,7.6,0,0,0-1.521,4.6,7.52,7.52,0,0,0,.967,3.691,7.916,7.916,0,0,0,2.276,2.6,7.634,7.634,0,0,0,4.605,1.521,7.471,7.471,0,0,0,3.683-.967,7.964,7.964,0,0,0,2.61-2.285,7.622,7.622,0,0,0,.791-7.822,7.984,7.984,0,0,0-3.234-3.533A7.544,7.544,0,0,0,146.786,31.331Zm24.59,13.28a16.156,16.156,0,0,0,3.964,1.433l-1.151,1.547q-5.8-1.8-7.629-5.484a12.37,12.37,0,0,1-2.145,1.45v2.092q2.619-.492,4.175-.888l.053,1.441a47.692,47.692,0,0,1-8.007,1.6l-.562-1.564q1.336-.141,2.417-.3v-1.5a26.688,26.688,0,0,1-3.894,1.143l-.9-1.477a23.434,23.434,0,0,0,6.574-2.109H158.06V40.568h7.559v-.7h1.907v.7h7.638v1.424h-2.417l1.222.914A17.444,17.444,0,0,1,171.376,44.611Zm-1.362-.87a13.322,13.322,0,0,0,2.268-1.749h-3.99A8.876,8.876,0,0,0,170.014,43.741Zm-8.728-11.874h1.327V30.61h1.731v1.257h3.489v1.257h-3.489v.87h4.061v1.274h-4.061v.773h3.489v2.593q0,.659-.3.853a1.932,1.932,0,0,1-.958.158,10.1,10.1,0,0,1-1.424-.07l-.22-1.2a7.281,7.281,0,0,0,1.046.07q.193,0,.237-.079a.476.476,0,0,0,.035-.229v-.923h-1.907v2.637h-1.731V37.211h-1.749v2.531h-1.67v-3.7h3.419v-.773H158.06V33.994h1.608l-1.283-.976a6.752,6.752,0,0,0,1.688-2.32l1.6.343Q161.506,31.445,161.286,31.867Zm-.791,1.257a7.93,7.93,0,0,1-.747.87h2.865v-.87Zm8.455-1.67H170.7v5.8H168.95Zm3.4-.844h1.8v7.559a1.488,1.488,0,0,1-.492,1.336,2.815,2.815,0,0,1-1.371.229,15.555,15.555,0,0,1-2.03-.123l-.308-1.424a15.81,15.81,0,0,0,1.934.167q.352,0,.413-.149a.855.855,0,0,0,.053-.343Zm19.545.554V37.5H180.919V31.164Zm-9,1.7v3.006h7V32.86Zm2.689,6.372v8.279h-1.854v-.9h-3.226v1.1h-1.872V39.232Zm-5.08,1.67v4.043h3.226V40.9Zm13.676-1.67v8.481H192.31v-1.1h-3.322v1.1h-1.854V39.232Zm-5.194,1.652v4.061h3.322V40.885ZM81.96,76.431a51.636,51.636,0,0,1-5.379.272,21.653,21.653,0,0,1-5.739-.519,4.276,4.276,0,0,1-1.89-1.125,3.016,3.016,0,0,1-.8-2.118,4.413,4.413,0,0,1,1.125-2.953,10.292,10.292,0,0,1,3.085-2.215,46.273,46.273,0,0,1-2.2-6.205l1.96-.51a56.514,56.514,0,0,0,1.934,5.906,46.473,46.473,0,0,1,7.181-2.593l.589,1.784a45.562,45.562,0,0,0-8.279,3,12.713,12.713,0,0,0-1.811.993A3.216,3.216,0,0,0,70.165,72.7q0,1.222,1.459,1.705a16.047,16.047,0,0,0,4.342.4,50.591,50.591,0,0,0,5.792-.334ZM87.7,61.349h2.074V71.825q0,3.313,3.48,3.313a4.416,4.416,0,0,0,3.762-2.118A13.811,13.811,0,0,0,98.719,68.8l1.784,1.081a13.643,13.643,0,0,1-2.153,4.746,6.3,6.3,0,0,1-5.142,2.452q-3.3,0-4.658-2.039a5.8,5.8,0,0,1-.853-3.287Zm16.311,1.4q8.086-.123,15.284-.413l.105,1.749a13.844,13.844,0,0,0-4.939.967,6.859,6.859,0,0,0-2.707,2.145,5.655,5.655,0,0,0-1.16,3.463A3.279,3.279,0,0,0,111.91,73.5a10.388,10.388,0,0,0,4.641,1.485l-.413,1.978q-4.078-.545-5.739-2.109a5.451,5.451,0,0,1-1.784-4.148,6.463,6.463,0,0,1,1.617-4.2,8.254,8.254,0,0,1,3.226-2.3q-3.63.123-9.36.413Zm26.6,1.749V62.913h-7.128V61.331h16.233v1.582h-7.233V64.5H138.1v6.741h2.048v1.617H138.1v3.059a1.489,1.489,0,0,1-.527,1.31,2.548,2.548,0,0,1-1.4.29q-1.116,0-2.883-.105l-.343-1.819a26.061,26.061,0,0,0,2.813.193q.343,0,.4-.141a.976.976,0,0,0,.035-.308V72.854h-9.185v4.86H125.1v-4.86h-2.048V71.236H125.1V64.5Zm0,1.529h-3.6v1.8h3.6Zm1.872,0v1.8h3.709v-1.8Zm-1.872,3.243h-3.6v1.969h3.6Zm1.872,0v1.969h3.709V69.268Zm14.7-5.432H150.6V60.61h2.013v3.226h6.311v1.837h-6.311v3.7h5.766v1.8h-5.766v4.069h7v1.837H143.371V75.244H150.6V71.175h-6.1v-1.8h6.1v-3.7h-4.219a16.167,16.167,0,0,1-1.846,2.839l-1.582-1.31A14.538,14.538,0,0,0,146,61.023l1.96.36A24.243,24.243,0,0,1,147.186,63.836ZM172.1,62.087h7.022v1.564h-3.27a13.958,13.958,0,0,1-.817,1.89h4.412V67.07H165.764V68.6a38.872,38.872,0,0,1-.264,5.282,9.5,9.5,0,0,1-1.441,3.867l-1.494-1.459a8.317,8.317,0,0,0,1.072-3.384,35.565,35.565,0,0,0,.167-3.894V65.541H167.4q-.36-.94-.817-1.89h-3.3V62.087h6.891V60.61H172.1Zm-3.507,1.564a17.269,17.269,0,0,1,.765,1.89h3.727a19.9,19.9,0,0,0,.721-1.89Zm.6,5.458h2.479V67.756h1.89v1.354h5.08v1.459h-5.08v1.705h4.447V73.7H173.56V75.64h5.994V77.2H165.711V75.64h5.959V73.7h-4.122V72.273h4.122V70.568h-3.155a8.721,8.721,0,0,1-1.31,1.811l-1.345-1.16a8.4,8.4,0,0,0,1.925-3.683l1.837.308Q169.411,68.547,169.192,69.109Z" transform="translate(3721 -6433.576)" fill="#343232"/>
    <path id="パス_15214" data-name="パス 15214" d="M56.087,4.5V2.913H48.959V1.331H65.193V2.913H57.959V4.5h5.616v6.741h2.048v1.617H63.575v3.059a1.489,1.489,0,0,1-.527,1.31,2.548,2.548,0,0,1-1.4.29q-1.116,0-2.883-.105l-.343-1.819a26.061,26.061,0,0,0,2.813.193q.343,0,.4-.141a.976.976,0,0,0,.035-.308V12.854H52.484v4.86H50.576v-4.86H48.528V11.236h2.048V4.5Zm0,1.529h-3.6v1.8h3.6Zm1.872,0v1.8h3.709v-1.8ZM56.087,9.268h-3.6v1.969h3.6Zm1.872,0v1.969h3.709V9.268Zm14.7-5.432H76.08V.61h2.013V3.836H84.4V5.673H78.093v3.7h5.766v1.8H78.093v4.069h7v1.837H68.847V15.244H76.08V11.175h-6.1v-1.8h6.1v-3.7H71.862a16.167,16.167,0,0,1-1.846,2.839L68.434,7.2a14.538,14.538,0,0,0,3.041-6.179l1.96.36A24.243,24.243,0,0,1,72.661,3.836Zm15.7-1.424h13.772l1.134.958a10.86,10.86,0,0,1-1.283,3.067,8.9,8.9,0,0,1-4.447,3.48L96.434,8.406a7.019,7.019,0,0,0,3.4-2.206,5.54,5.54,0,0,0,1.116-1.986H88.366ZM94,6.209h2.013V7.721a14.422,14.422,0,0,1-.756,5.256,7.691,7.691,0,0,1-3.727,3.832l-1.45-1.529a6.913,6.913,0,0,0,2.786-2.162,5.4,5.4,0,0,0,.888-2.065A18.065,18.065,0,0,0,94,7.7Zm25.2-2.865,1.371,1.134q-.993,5.555-3.647,8.49a15.644,15.644,0,0,1-7.277,4.131l-1.1-1.784a13.5,13.5,0,0,0,6.785-3.639,12.773,12.773,0,0,0,3.023-6.53h-5.924A15.7,15.7,0,0,1,108.1,9.61l-1.441-1.459a14.346,14.346,0,0,0,3.3-2.83,12.755,12.755,0,0,0,2.25-4.192l1.907.519a15.955,15.955,0,0,1-.686,1.7Zm6.467-2h2.048v9.615h-2.048Zm9.026-.185h2.048V7.448a16.8,16.8,0,0,1-.536,4.931,5.713,5.713,0,0,1-1.222,2.2,9.995,9.995,0,0,1-5.168,2.558l-1.011-1.8q3.894-.791,4.992-2.628a6.779,6.779,0,0,0,.835-2.953q.062-.826.062-2.285Zm10.624.817h1.978v3.2a23.752,23.752,0,0,1-.686,6.715,8.77,8.77,0,0,1-3.8,4.676l-1.345-1.564a8.934,8.934,0,0,0,2.821-2.918,9.282,9.282,0,0,0,.905-3.419q.123-1.213.123-3.454Zm4.5-.51h1.978V13.961a9.4,9.4,0,0,0,3.067-2.575,12.374,12.374,0,0,0,2.153-4.333l1.547,1.494A13.809,13.809,0,0,1,156.151,13a13.086,13.086,0,0,1-5.045,3.665l-1.292-1.116Zm21.3,3.12h5.449v6.961H172.3v4.79a1.338,1.338,0,0,1-.36,1.063,2.106,2.106,0,0,1-1.327.308,13.622,13.622,0,0,1-2.259-.167l-.281-1.635a11.762,11.762,0,0,0,1.652.185,1.233,1.233,0,0,0,.58-.079.419.419,0,0,0,.105-.343V11.553H165.9V4.592h3.331q.272-.642.642-1.661H164.49V7.07a38.627,38.627,0,0,1-.448,6.645,12.94,12.94,0,0,1-1.354,3.9l-1.564-1.327a13,13,0,0,0,1.2-4.078,34.312,34.312,0,0,0,.237-4.438V1.313h15.152V2.931h-5.8Q171.574,3.722,171.117,4.592Zm3.542,1.424H167.75V7.343h6.908ZM167.75,8.767v1.362h6.908V8.767Zm9.088,8.262a24.662,24.662,0,0,0-3.12-3.832l1.371-1.063a21,21,0,0,1,3.19,3.63Zm-12.691-1.081a10.958,10.958,0,0,0,2.8-3.762l1.556.791a13.189,13.189,0,0,1-2.988,4.192Zm19.985-4.061a14.835,14.835,0,0,1-2.285,3.647L180.783,13.7a15.022,15.022,0,0,0,3.19-5.036h-2.848V6.93h3.006V.61h1.854V6.93h2.443V8.661h-2.443V9.8a29.236,29.236,0,0,1,2.566,2.619l-1.072,1.854a25.406,25.406,0,0,0-1.494-2.232v5.669h-1.854Zm11.769.378v5.449h-1.942v-5.08l-5.08.976-.3-1.731,5.379-1.02V.61H195.9v9.87l2.127-.4.141,1.749ZM182.022,6.227a28.913,28.913,0,0,0-.949-4l1.688-.536a19.618,19.618,0,0,1,.958,4.069Zm4.228-.466a24.876,24.876,0,0,0,1.063-4.192l1.749.413a22.488,22.488,0,0,1-1.274,4.192Zm5.941.281A18.684,18.684,0,0,0,189.2,3.273l1.23-1.318A16.946,16.946,0,0,1,193.457,4.6Zm-.343,4.069a22.166,22.166,0,0,0-2.892-2.7l1.151-1.31A18.693,18.693,0,0,1,193.1,8.731ZM96.5,33.08h4.737q.782-1.248,1.187-2.013l1.96.281q-.264.475-.932,1.547l-.114.185h6.2v1.731h-7.365a33.932,33.932,0,0,1-2.2,2.742A6.022,6.022,0,0,1,103,36.561a2.7,2.7,0,0,1,2.786,2.136q2.25-.747,4.588-1.477l.756,1.705-.308.088-.87.229q-2.461.668-3.937,1.143.105,1.143.149,2.953l-1.925.105q-.009-1.046-.035-2.268V41q-4.043,1.38-4.043,2.777,0,.721,1.037.984a16.856,16.856,0,0,0,3.586.255,48.4,48.4,0,0,0,5-.272L110,46.615q-2.54.193-5.265.193a15.629,15.629,0,0,1-4.772-.51,2.3,2.3,0,0,1-1.749-2.276,3.163,3.163,0,0,1,1.239-2.452A15.347,15.347,0,0,1,103.97,39.3a1.985,1.985,0,0,0-.466-.949,1.2,1.2,0,0,0-.861-.308,5.174,5.174,0,0,0-2.188.659,16.9,16.9,0,0,0-3.489,2.435L95.8,39.8a25.633,25.633,0,0,0,4.28-4.992H96.5Zm31.586,11.531a16.156,16.156,0,0,0,3.964,1.433L130.9,47.591q-5.8-1.8-7.629-5.484a12.37,12.37,0,0,1-2.145,1.45v2.092q2.619-.492,4.175-.888l.053,1.441a47.692,47.692,0,0,1-8.007,1.6l-.562-1.564q1.336-.141,2.417-.3v-1.5a26.688,26.688,0,0,1-3.894,1.143l-.9-1.477a23.434,23.434,0,0,0,6.574-2.109H114.77V40.568h7.559v-.7h1.907v.7h7.638v1.424h-2.417l1.222.914A17.444,17.444,0,0,1,128.085,44.611Zm-1.362-.87a13.322,13.322,0,0,0,2.268-1.749H125A8.876,8.876,0,0,0,126.723,43.741ZM118,31.867h1.327V30.61h1.731v1.257h3.489v1.257h-3.489v.87h4.061v1.274h-4.061v.773h3.489v2.593q0,.659-.3.853a1.932,1.932,0,0,1-.958.158,10.1,10.1,0,0,1-1.424-.07l-.22-1.2a7.281,7.281,0,0,0,1.046.07q.193,0,.237-.079a.476.476,0,0,0,.035-.229v-.923h-1.907v2.637h-1.731V37.211h-1.749v2.531H115.9v-3.7h3.419v-.773H114.77V33.994h1.608l-1.283-.976a6.752,6.752,0,0,0,1.688-2.32l1.6.343Q118.215,31.445,118,31.867Zm-.791,1.257a7.93,7.93,0,0,1-.747.87h2.865v-.87Zm8.455-1.67h1.749v5.8H125.66Zm3.4-.844h1.8v7.559a1.488,1.488,0,0,1-.492,1.336,2.815,2.815,0,0,1-1.371.229,15.555,15.555,0,0,1-2.03-.123l-.308-1.424a15.81,15.81,0,0,0,1.934.167q.352,0,.413-.149a.855.855,0,0,0,.053-.343Zm9.9,13.1a4.623,4.623,0,0,0,1.793,1.274,9.933,9.933,0,0,0,3.621.6h7.585a6.42,6.42,0,0,0-.6,1.714h-7.058a10.174,10.174,0,0,1-4.245-.747,5.79,5.79,0,0,1-1.89-1.5,1.743,1.743,0,0,0-.123.141,15.227,15.227,0,0,1-2.522,2.54l-1.046-1.8a23.108,23.108,0,0,0,2.575-1.854V39.689h-2.452V37.958h4.359Zm3.779-10.828h1.731V30.61h1.872v2.268h3.964v1.494h-3.964v1.89H151.3v1.564H139.29V36.262h5.186v-1.89h-2.294a7.929,7.929,0,0,1-1.09,1.819l-1.459-1.028a13.16,13.16,0,0,0,1.872-4.3l1.7.413Q142.981,32.175,142.744,32.878Zm7.233,6.284v5.186h-9.07V39.162Zm-7.2,1.406v2.3h5.344v-2.3Zm-5.238-5.1a17.809,17.809,0,0,0-2.61-3.524l1.6-1.046a20.343,20.343,0,0,1,2.672,3.366Z" transform="translate(3880.36 -6275.654)" fill="#343232"/>
    <path id="パス_15215" data-name="パス 15215" d="M72.785,8.011V9.338h3.5v1.477h-3.5v1.477h4.447v1.547H60.138V12.291h4.368V10.814H61.1V9.338h3.4V8.011H61.7V1.146H75.651V8.011Zm-1.942,0h-4.43V9.338h4.43Zm0,2.8h-4.43v1.477h4.43ZM63.574,2.5V3.924h4.14V2.5Zm0,2.7V6.675h4.14V5.2Zm10.2,1.477V5.2H69.551V6.675Zm0-2.751V2.5H69.551V3.924Zm-13.641,12.4a15.442,15.442,0,0,0,5.4-2.3l1.494,1a17.623,17.623,0,0,1-5.616,2.9ZM75.8,17.767a31.632,31.632,0,0,0-5.563-2.593l1.406-1.151a32.267,32.267,0,0,1,5.6,2.338ZM94.123,5.251l-.062.36a23.274,23.274,0,0,1-1.775,6A17.716,17.716,0,0,1,88.4,16.809l-1.345-1.222a18.012,18.012,0,0,0,4.131-5.836,20.593,20.593,0,0,0,1.336-4.5H91.478a22.319,22.319,0,0,1-1.415,3.911A13.91,13.91,0,0,1,87.11,13.2l-1.257-1.283a12.945,12.945,0,0,0,3.155-4.324,16.275,16.275,0,0,0,.826-2.338H88.92a12.159,12.159,0,0,1-1.705,2.883L86.1,6.754a10.046,10.046,0,0,0,.659-.993H84.789V8.934q.773-.264,2.118-.782l.149,1.512q-1.046.5-2.268,1.011v7.04h-1.8V11.368q-.905.352-2.663.888l-.562-1.8q1.5-.4,2.979-.853l.246-.079V5.761h-.993a22.127,22.127,0,0,1-.738,2.918l-1.547-.958a24.417,24.417,0,0,0,1.134-5.906l1.6.185q-.088,1.178-.193,2.03h.773V.61h1.767V4.029h2.03V5.655a17.234,17.234,0,0,0,1.714-5.1l1.89.325a17.092,17.092,0,0,1-.765,2.7h7.022q-.105,9.729-.694,12.138a2.336,2.336,0,0,1-.914,1.512,3.355,3.355,0,0,1-1.7.343q-.448,0-1.564-.105l-.439-.044-.29-1.872a10.252,10.252,0,0,0,1.916.22q.738,0,.958-.316a4.553,4.553,0,0,0,.475-1.828q.255-2.153.422-7.664l.018-.712Zm7.144-2.171H106q.782-1.248,1.187-2.013l1.96.281q-.264.475-.932,1.547l-.114.185h6.2V4.812h-7.365a33.932,33.932,0,0,1-2.2,2.742,6.022,6.022,0,0,1,3.032-.993A2.7,2.7,0,0,1,110.557,8.7q2.25-.747,4.588-1.477l.756,1.705-.308.088-.87.229q-2.461.668-3.937,1.143.105,1.143.149,2.953l-1.925.105q-.009-1.046-.035-2.268V11q-4.043,1.38-4.043,2.777,0,.721,1.037.984a16.856,16.856,0,0,0,3.586.255,48.4,48.4,0,0,0,5-.272l.211,1.872q-2.54.193-5.265.193a15.629,15.629,0,0,1-4.772-.51,2.3,2.3,0,0,1-1.749-2.276,3.163,3.163,0,0,1,1.239-2.452A15.347,15.347,0,0,1,108.738,9.3a1.985,1.985,0,0,0-.466-.949,1.2,1.2,0,0,0-.861-.308,5.174,5.174,0,0,0-2.188.659,16.9,16.9,0,0,0-3.489,2.435L100.564,9.8a25.633,25.633,0,0,0,4.28-4.992h-3.577Zm26.181,3.375a17.756,17.756,0,0,1-1.775,1.354l-1.063-1.529A11.993,11.993,0,0,0,129.645.7h2a12.089,12.089,0,0,0,2.338,3.015A17.131,17.131,0,0,0,136.94,5.8l-.923,1.688a16.665,16.665,0,0,1-1.907-1.31V7.343h-2.373V9.3h4.825V10.92h-4.825v5.221a1.719,1.719,0,0,1-.264,1.063,1.655,1.655,0,0,1-1.345.413,18.724,18.724,0,0,1-2.118-.123l-.29-1.784a12.343,12.343,0,0,0,1.767.167q.325,0,.387-.141a1,1,0,0,0,.044-.352V10.92h-4.623V9.3h4.623V7.343h-2.47Zm.765-.712h5.37a15.646,15.646,0,0,1-2.874-3.331A14.612,14.612,0,0,1,128.213,5.743Zm-4.438,1.239a7.167,7.167,0,0,1,1.336,4.377,3.562,3.562,0,0,1-.466,2.171,1.924,1.924,0,0,1-1.547.527,5.155,5.155,0,0,1-.9-.07l-.4-1.767a5.989,5.989,0,0,0,.958.088q.457,0,.554-.255a3.646,3.646,0,0,0,.1-1.081,5.951,5.951,0,0,0-1.248-3.832,27.445,27.445,0,0,0,1.406-4.21h-1.837V17.714h-1.767V1.3h4.6l.932.773A32.016,32.016,0,0,1,123.774,6.982Zm.554,8.517a11.46,11.46,0,0,0,2.285-3.894l1.547.721a12.585,12.585,0,0,1-2.417,4.412Zm10.872.9a20.874,20.874,0,0,0-2.2-4.087l1.477-.844a19.378,19.378,0,0,1,2.268,3.8Zm12.206-6.583a42.745,42.745,0,0,1-2.962,5.3l.387-.018q3.568-.2,6.521-.562.211-.026.325-.035-.923-1.187-2.136-2.47l1.679-.958a41.06,41.06,0,0,1,4.72,5.546l-1.854,1.239q-.6-.905-1.336-1.951a121.737,121.737,0,0,1-12.12,1.433l-.642-2q.694-.026,1.327-.062l.861-.044a37.34,37.34,0,0,0,2.936-5.423h-5.774V8.1h7.506V4.882h-6.029V3.168h6.029V.61h1.978V3.168h6.091V4.882h-6.091V8.1h7.62V9.813Zm13.463-8.464h2.074V11.825q0,3.313,3.48,3.313a4.416,4.416,0,0,0,3.762-2.118A13.811,13.811,0,0,0,171.891,8.8l1.784,1.081a13.643,13.643,0,0,1-2.153,4.746,6.3,6.3,0,0,1-5.142,2.452q-3.3,0-4.658-2.039a5.8,5.8,0,0,1-.853-3.287Zm20.178,16.075a29.941,29.941,0,0,0-3.674-4.395l1.424-1.257a29.5,29.5,0,0,1,3.744,4.3ZM91.289,39.268q-.334,5.792-4.043,8.481L85.91,46.413A7.588,7.588,0,0,0,88.837,42.6a14.668,14.668,0,0,0,.668-3.331h-1.45v-.9q-.369.571-.976,1.345l-.861-1.055H84.31v.984a20.956,20.956,0,0,1,2.628,2.391l-1.063,1.608q-.826-1.151-1.564-2.021v6.091H82.544V41.755a16.629,16.629,0,0,1-2.1,3.647L79.38,43.68a15.176,15.176,0,0,0,3.006-5.019H79.705V36.93h2.839V30.61H84.31V36.93h1.907v.949a14.253,14.253,0,0,0,1.969-3.937,22.647,22.647,0,0,0,.677-2.716l1.67.483A20.354,20.354,0,0,1,88.52,37.6h5.941a18.131,18.131,0,0,1-1.793-3.3,26.185,26.185,0,0,1-.923-2.681l1.635-.615a18.054,18.054,0,0,0,1.389,3.586,12.167,12.167,0,0,0,2.285,3.023l-1.046,1.793a11.829,11.829,0,0,1-.958-1.046l-.009.492a40.281,40.281,0,0,1-.51,7.471,1.408,1.408,0,0,1-.791.984,3.353,3.353,0,0,1-1.266.185,17.1,17.1,0,0,1-2-.123l-.36-1.8a14.96,14.96,0,0,0,1.811.141q.668,0,.817-.369a37.478,37.478,0,0,0,.439-6.073Zm-10.74-3.076a27.1,27.1,0,0,0-.844-4.034l1.582-.448a21.148,21.148,0,0,1,.861,4.052Zm3.964-.448a23.656,23.656,0,0,0,1-4.2l1.7.378a23.929,23.929,0,0,1-1.283,4.254Zm17.9,1.837h3.208v8.147h-3.111v1.564h-1.635V40.621q-.387.615-.958,1.362l-.791-1.863a17.685,17.685,0,0,0,2.795-6.671l.062-.264H99.707V31.472h6.372v1.714h-2.312A24.033,24.033,0,0,1,102.414,37.58Zm.1,1.6V44.11h1.529V39.18Zm7.576,1.925v-2.32h1.872V41.1h4.685v1.714h-4.685v4.9h-1.872v-4.9H106.1V41.1Zm-.782-8.35.062-2.145h1.784l-.07,2.145h2.979l-.141,4.192a.581.581,0,0,0,.053.308q.07.088.352.088.554,0,.633-.255a8.815,8.815,0,0,0,.167-1.784l1.477.545a5.913,5.913,0,0,1-.413,2.689,1.149,1.149,0,0,1-.817.5,7.034,7.034,0,0,1-1.1.07,3.528,3.528,0,0,1-1.731-.264,1.02,1.02,0,0,1-.352-.932l.105-3.507h-1.336a6.753,6.753,0,0,1-3.964,5.186l-1.2-1.318a5.97,5.97,0,0,0,2.593-2.057,5.508,5.508,0,0,0,.756-1.811H106.7V32.755Zm14.034,4.421a1.966,1.966,0,0,1,1.644,3.05,1.875,1.875,0,0,1-1.67.914,1.905,1.905,0,0,1-.905-.229,1.8,1.8,0,0,1-.58-.466,1.958,1.958,0,0,1-.483-1.3,1.876,1.876,0,0,1,.853-1.617A1.966,1.966,0,0,1,123.339,37.176Zm13.217-.246v-.861h4.21V35.2h-3.243V33.941h3.243V33.1h-3.691V31.779h3.691V30.61h1.8v1.169h4.21V33.1h-4.21v.844h3.577V35.2h-3.577v.87h4.676v1.406H136.662v1.187h-2.338v.94a26.077,26.077,0,0,1,2.558,2.769l-.993,1.6q-.879-1.354-1.564-2.32v6.064h-1.731v-5.88a16.69,16.69,0,0,1-1.925,3.595l-.993-1.749a14.947,14.947,0,0,0,2.716-5.019h-2.373V36.93h2.575V30.61h1.731V36.93Zm9.352,1.477v7.717a1.58,1.58,0,0,1-.378,1.16,1.653,1.653,0,0,1-1.23.378,18.1,18.1,0,0,1-2.171-.149l-.29-1.6a16.961,16.961,0,0,0,1.846.141q.308,0,.369-.185a1.29,1.29,0,0,0,.035-.352V44.181H139.36v3.533h-1.819V38.406ZM139.36,39.7v.993h4.729V39.7Zm0,2.215v1.028h4.729V41.913Zm-8.692-5.739a29.81,29.81,0,0,0-.686-4.017l1.529-.431a23.352,23.352,0,0,1,.686,4.087Zm3.832-.413a36.569,36.569,0,0,0,.791-4.192l1.564.378a22.3,22.3,0,0,1-.958,4.228Zm28.686,8.851a16.156,16.156,0,0,0,3.964,1.433L166,47.591q-5.8-1.8-7.629-5.484a12.37,12.37,0,0,1-2.145,1.45v2.092q2.619-.492,4.175-.888l.053,1.441a47.692,47.692,0,0,1-8.007,1.6l-.562-1.564q1.336-.141,2.417-.3v-1.5a26.688,26.688,0,0,1-3.894,1.143l-.9-1.477a23.434,23.434,0,0,0,6.574-2.109H149.87V40.568h7.559v-.7h1.907v.7h7.638v1.424h-2.417l1.222.914A17.444,17.444,0,0,1,163.185,44.611Zm-1.362-.87a13.322,13.322,0,0,0,2.268-1.749H160.1A8.876,8.876,0,0,0,161.823,43.741ZM153.1,31.867h1.327V30.61h1.731v1.257h3.489v1.257h-3.489v.87h4.061v1.274h-4.061v.773h3.489v2.593q0,.659-.3.853a1.932,1.932,0,0,1-.958.158,10.1,10.1,0,0,1-1.424-.07l-.22-1.2a7.281,7.281,0,0,0,1.046.07q.193,0,.237-.079a.476.476,0,0,0,.035-.229v-.923h-1.907v2.637h-1.731V37.211h-1.749v2.531H151v-3.7h3.419v-.773H149.87V33.994h1.608l-1.283-.976a6.752,6.752,0,0,0,1.688-2.32l1.6.343Q153.315,31.445,153.1,31.867Zm-.791,1.257a7.93,7.93,0,0,1-.747.87h2.865v-.87Zm8.455-1.67h1.749v5.8H160.76Zm3.4-.844h1.8v7.559a1.488,1.488,0,0,1-.492,1.336,2.815,2.815,0,0,1-1.371.229,15.555,15.555,0,0,1-2.03-.123l-.308-1.424a15.81,15.81,0,0,0,1.934.167q.352,0,.413-.149a.855.855,0,0,0,.053-.343Z" transform="translate(4029.195 -6413.992)" fill="#343232"/>
    <path id="パス_15216" data-name="パス 15216" d="M-20.228-56.362q10.767,0,16.68,9.331,4.956,7.793,4.956,20.542,0,11.655-4.2,19.209Q-8.641,3.281-20.33,3.281A18.655,18.655,0,0,1-36.7-5.469Q-42-13.33-42-26.489q0-13.672,5.674-21.636A18.726,18.726,0,0,1-20.228-56.362Zm-.1,7.349q-5.537,0-8.75,6.084-3.11,5.947-3.11,16.44,0,9.81,2.837,15.654Q-26.106-4.2-20.262-4.2q5.127,0,8.306-5.332Q-8.4-15.518-8.4-26.489q0-10.425-3.076-16.372Q-14.69-49.014-20.33-49.014Zm43.5,50.757v-48.3A98.4,98.4,0,0,1,9.5-42.964L7.82-49.9a86.123,86.123,0,0,0,17.773-6.084h6.563V1.743Z" transform="translate(3999.781 -6589.943)" fill="#e5fff0"/>
    <path id="パス_15217" data-name="パス 15217" d="M37.641,0,75.281,28.679H0Z" transform="translate(4127.003 -6495.225) rotate(135)" fill="#004d22"/>
    <path id="パス_15137" data-name="パス 15137" d="M37.641,0,56.648,14.482l18.633,14.2H0Z" transform="translate(4098.837 -6271.354) rotate(-135)" fill="#004d22"/>
    <path id="パス_15218" data-name="パス 15218" d="M37.641,0,75.281,28.679H0Z" transform="translate(3879.27 -6295.934) rotate(-45)" fill="#004d22"/>
    <path id="パス_15219" data-name="パス 15219" d="M37.641,0,75.281,28.679H0Z" transform="translate(3899.549 -6519.086) rotate(45)" fill="#004d22"/>
    <path id="パス_15220" data-name="パス 15220" d="M13,0H99.927a13,13,0,0,1,13,13V99.927a13,13,0,0,1-13,13H13a13,13,0,0,1-13-13V13A13,13,0,0,1,13,0Z" transform="translate(4001.581 -6472.115) rotate(45)" fill="#004d22"/>
    <path id="パス_15221" data-name="パス 15221" d="M-49.563-17.093h2.389V-5.875h-2.389Zm10.531-.215h2.389v7.332a19.6,19.6,0,0,1-.625,5.752,6.666,6.666,0,0,1-1.425,2.563,11.66,11.66,0,0,1-6.029,2.984L-45.9-.779q4.542-.923,5.824-3.066A7.909,7.909,0,0,0-39.1-7.291q.072-.964.072-2.666Zm20.578,0h2.307v4.143h4.112v2.1h-4.112v.646q0,5.229-1.5,7.854a9.233,9.233,0,0,1-5.1,3.866L-24.177-.523A7.681,7.681,0,0,0-19.4-4.317a14.807,14.807,0,0,0,.943-6.07v-.677h-6.224v5.875h-2.307v-5.875h-3.825v-2.1h3.825v-3.989h2.307v3.989h6.224ZM-.41,1.087V-9.434A32.289,32.289,0,0,1-7.526-5.906L-8.767-7.988A30.839,30.839,0,0,0-.8-11.925,32.61,32.61,0,0,0,5.188-17.35l1.979,1.241A37.248,37.248,0,0,1,1.979-11.2V1.087ZM25.633-14.766l1.6,1.323q-1.159,6.48-4.255,9.905a18.251,18.251,0,0,1-8.49,4.819L13.2-.8a15.745,15.745,0,0,0,7.916-4.245,14.9,14.9,0,0,0,3.527-7.619H17.737a18.319,18.319,0,0,1-5.055,5.209L11-9.157a16.737,16.737,0,0,0,3.845-3.3,14.881,14.881,0,0,0,2.625-4.891l2.225.6a18.614,18.614,0,0,1-.8,1.979Zm10.313-1.589h2.307v3.732a27.71,27.71,0,0,1-.8,7.834A10.232,10.232,0,0,1,33.024.667L31.455-1.159a10.423,10.423,0,0,0,3.292-3.4A10.829,10.829,0,0,0,35.8-8.552q.144-1.415.144-4.03Zm5.25-.595H43.5V-2.379a10.97,10.97,0,0,0,3.579-3,14.436,14.436,0,0,0,2.512-5.055L51.4-8.7a16.11,16.11,0,0,1-2.81,5.2A15.266,15.266,0,0,1,42.7.779L41.2-.523Zm-74.81,40.832q6.019-1.518,6.019-6.9a6.762,6.762,0,0,0-1.21-4.04,6.287,6.287,0,0,0-4.122-2.451,39.943,39.943,0,0,1-1.651,7.793,23.286,23.286,0,0,1-1.784,4.009q-1.538,2.687-3.5,2.687a3.371,3.371,0,0,1-2.594-1.312,6.509,6.509,0,0,1-1.179-2.041,9.438,9.438,0,0,1-.595-3.374,9.636,9.636,0,0,1,1.61-5.383,9.529,9.529,0,0,1,4.235-3.65,10.267,10.267,0,0,1,4.163-.831,9.575,9.575,0,0,1,6.009,1.9,7.822,7.822,0,0,1,3.035,6.593q0,7.147-7.229,9.064Zm-1.538-13.474a7.132,7.132,0,0,0-3.035.974,8.185,8.185,0,0,0-1.548,1.333,7.9,7.9,0,0,0-2.133,5.465,6.081,6.081,0,0,0,.9,3.548q.554.79,1.1.79.738,0,1.661-1.63A28.264,28.264,0,0,0-35.152,10.409Zm18.609,2.2V27h-2.246V16.8a28.777,28.777,0,0,1-1.774,2.43l-1.087-2.266a22.76,22.76,0,0,0,3.189-5.547,46.869,46.869,0,0,0,1.538-4.45l2.225.595A48.933,48.933,0,0,1-16.544,12.613Zm9.064.226h5.906v2.123H-7.479v9.075h5.486v2.1H-15.057v-2.1h5.291V14.961H-15.8V12.839h6.029V7.322h2.287ZM4.7,14.767a24.537,24.537,0,0,0-3.045-3.456L2.937,9.845q.359.328.564.543A24.966,24.966,0,0,0,5.623,6.943L7.479,7.968A26.817,26.817,0,0,1,4.69,11.69,19.7,19.7,0,0,1,5.941,13.3l.092-.113Q7.479,11.475,8.987,9.3l1.641,1.189a49.054,49.054,0,0,1-4.942,5.7q1.907-.123,3.138-.246-.379-.995-.7-1.671l1.682-.615a21.575,21.575,0,0,1,1.682,4.6l-1.7.718a28.344,28.344,0,0,1,1.077,3.968l-1.9.82a23.347,23.347,0,0,0-.943-4.286L9.694,19Q9.5,18.13,9.3,17.474q-1.118.185-1.866.267V27H5.4V17.986l-.287.021q-1.507.154-3.138.256l-.42-1.907q.482-.021.984-.031l.779-.031Q3.921,15.669,4.7,14.767ZM20.184,8.091V24.5h1.4v1.948H9.55V24.5h2.041V8.091Zm-6.429,1.928v3.517H18.02V10.019Zm0,5.322v3.466H18.02V15.341Zm0,5.291V24.5H18.02V20.632ZM1.675,24.662a25.745,25.745,0,0,0,.984-5.373l1.938.256a22.756,22.756,0,0,1-.974,5.978ZM27.288,8.512h8.019l1.436,1.22q-1.015,3.558-1.682,5.353a19.349,19.349,0,0,1,4.707,1.395q.123-1.323.123-2.594,0-.677-.041-1.589l2.246.236a46.574,46.574,0,0,1-.236,4.932q1.271.656,2.666,1.548L43.643,21.2q-.984-.718-2.133-1.425a9.943,9.943,0,0,1-2.522,4.737,10.956,10.956,0,0,1-3.363,2.133l-1.282-1.723a8.582,8.582,0,0,0,3.712-2.748,9.3,9.3,0,0,0,1.395-3.486,18.129,18.129,0,0,0-5.086-1.7,30.064,30.064,0,0,1-3.353,6.932A3.591,3.591,0,0,1,28.129,25.7a2.646,2.646,0,0,1-2.4-1.477,5.317,5.317,0,0,1-.646-2.687,6.145,6.145,0,0,1,.995-3.445,6.729,6.729,0,0,1,3.63-2.635,10.791,10.791,0,0,1,3.168-.513,41.375,41.375,0,0,0,1.446-4.409H27.288Zm4.85,8.388a6.258,6.258,0,0,0-2.266.5,4.371,4.371,0,0,0-2.666,4.04,3.142,3.142,0,0,0,.338,1.5q.256.5.615.5Q29.595,23.441,32.138,16.9Z" transform="translate(4002.107 -6393.018)" fill="#fcfcfc"/>
  </g>
</svg>
