<svg xmlns="http://www.w3.org/2000/svg" width="350" height="349.314" viewBox="0 0 350 349.314">
  <g id="recycle_img_feature_sp" transform="translate(-4955 7540)">
    <path id="パス_15162" data-name="パス 15162" d="M0,0H120.219V120.219H0Z" transform="translate(5130 -7540) rotate(45)" fill="#c6edd7"/>
    <path id="パス_15161" data-name="パス 15161" d="M0,0H120.219V120.219H0Z" transform="translate(5040.008 -7449.869) rotate(45)" fill="#e2ebe6"/>
    <path id="パス_15163" data-name="パス 15163" d="M0,0H120.219V120.219H0Z" transform="translate(5129.999 -7360.701) rotate(45)" fill="#f0f0f0"/>
    <path id="パス_15164" data-name="パス 15164" d="M0,0H120.219V120.219H0Z" transform="translate(5219.992 -7450.57) rotate(45)" fill="#ced8d2"/>
    <path id="パス_15174" data-name="パス 15174" d="M-23.358-53.142q10.151,0,15.727,8.8Q-2.958-37-2.958-24.976q0,10.989-3.964,18.111-5.511,9.958-16.532,9.958a17.589,17.589,0,0,1-15.437-8.25q-5-7.412-5-19.819,0-12.891,5.35-20.4A17.656,17.656,0,0,1-23.358-53.142Zm-.1,6.929q-5.221,0-8.25,5.736-2.933,5.607-2.933,15.5,0,9.249,2.675,14.76Q-28.9-3.964-23.39-3.964q4.834,0,7.831-5.027,3.352-5.64,3.352-15.984,0-9.829-2.9-15.437Q-18.137-46.213-23.454-46.213ZM4.086,1.644V-5.64Q7.148-15.146,20.78-24.234l1.772-1.192a43.808,43.808,0,0,0,8.057-6.381A8.892,8.892,0,0,0,33.058-37.8a7.606,7.606,0,0,0-1.772-5.027q-2.643-3.19-7.9-3.19-7.831,0-14.083,6.542L3.764-44.569a20.29,20.29,0,0,1,5.221-4.512,27.281,27.281,0,0,1,14.438-3.932A23.05,23.05,0,0,1,34.154-50.66a15.011,15.011,0,0,1,6.059,5.607A14.084,14.084,0,0,1,42.178-37.8a13.927,13.927,0,0,1-3.9,9.475q-2.61,2.933-9.765,7.8l-2.062,1.386q-7.573,5.124-9.99,7.605A17.769,17.769,0,0,0,12.53-6.091H42.694V1.644Z" transform="translate(5240 -7344.984)" fill="#dce6e0"/>
    <path id="パス_15178" data-name="パス 15178" d="M-23.358-53.142q10.151,0,15.727,8.8Q-2.958-37-2.958-24.976q0,10.989-3.964,18.111-5.511,9.958-16.532,9.958a17.589,17.589,0,0,1-15.437-8.25q-5-7.412-5-19.819,0-12.891,5.35-20.4A17.656,17.656,0,0,1-23.358-53.142Zm-.1,6.929q-5.221,0-8.25,5.736-2.933,5.607-2.933,15.5,0,9.249,2.675,14.76Q-28.9-3.964-23.39-3.964q4.834,0,7.831-5.027,3.352-5.64,3.352-15.984,0-9.829-2.9-15.437Q-18.137-46.213-23.454-46.213ZM13.851-29.842H18.33a17.87,17.87,0,0,0,9.12-2.03q4.222-2.481,4.222-6.8a6.519,6.519,0,0,0-3.094-5.672,12,12,0,0,0-6.832-1.837q-7.412,0-14.244,5.672L2.829-46.277a30.235,30.235,0,0,1,19.5-6.639q7.509,0,12.343,3.094A12,12,0,0,1,40.5-39.155,11.968,11.968,0,0,1,36.474-30.1a14.924,14.924,0,0,1-8.25,3.642v.258q6.639,1.1,10.151,4.383a11.911,11.911,0,0,1,3.642,9.12q0,8.314-6.735,12.439Q30.222,2.836,22,2.836,9.049,2.836.993-5.092l4.866-5.8A19.9,19.9,0,0,0,12.5-6.381a23.789,23.789,0,0,0,9.571,2.159q5.221,0,8.153-2.191,2.836-2.095,2.836-6.413,0-5.93-5.7-8.411a22.935,22.935,0,0,0-9.217-1.676H13.851Z" transform="translate(5128.1 -7222.561)" fill="#fffcfc"/>
    <path id="パス_15165" data-name="パス 15165" d="M-23.358-53.142q10.151,0,15.727,8.8Q-2.958-37-2.958-24.976q0,10.989-3.964,18.111-5.511,9.958-16.532,9.958a17.589,17.589,0,0,1-15.437-8.25q-5-7.412-5-19.819,0-12.891,5.35-20.4A17.656,17.656,0,0,1-23.358-53.142Zm-.1,6.929q-5.221,0-8.25,5.736-2.933,5.607-2.933,15.5,0,9.249,2.675,14.76Q-28.9-3.964-23.39-3.964q4.834,0,7.831-5.027,3.352-5.64,3.352-15.984,0-9.829-2.9-15.437Q-18.137-46.213-23.454-46.213Zm48.81-5.93H35.378v34.579H44.95V-10.7H35.378V1.644H27.322V-10.7H.541v-6.8Zm1.966,34.579V-32.871q0-5.253.451-11.956h-.258a67.543,67.543,0,0,1-5.35,9.765L9.919-17.563Z" transform="translate(5013.388 -7340.711)" fill="#f0f7f3"/>
    <path id="パス_15166" data-name="パス 15166" d="M-19.072-53.142q10.151,0,15.727,8.8Q1.328-37,1.328-24.976q0,10.989-3.964,18.111Q-8.147,3.094-19.168,3.094A17.589,17.589,0,0,1-34.6-5.156q-5-7.412-5-19.819,0-12.891,5.35-20.4A17.656,17.656,0,0,1-19.072-53.142Zm-.1,6.929q-5.221,0-8.25,5.736-2.933,5.607-2.933,15.5,0,9.249,2.675,14.76,3.062,6.252,8.572,6.252,4.834,0,7.831-5.027,3.352-5.64,3.352-15.984,0-9.829-2.9-15.437Q-13.851-46.213-19.168-46.213ZM21.843,1.644V-43.893A92.782,92.782,0,0,1,8.953-40.509L7.373-47.051a81.2,81.2,0,0,0,16.758-5.736h6.188V1.644Z" transform="translate(5128.721 -7459.57)" fill="#e5fff0"/>
    <path id="パス_15175" data-name="パス 15175" d="M19.661,0,39.323,14.98H0Z" transform="translate(5195.513 -7417.529) rotate(135)" fill="#004d22"/>
    <path id="パス_15137" data-name="パス 15137" d="M19.661,0,29.59,7.564l9.733,7.416H0Z" transform="translate(5180.801 -7300.592) rotate(-135)" fill="#004d22"/>
    <path id="パス_15167" data-name="パス 15167" d="M19.661,0,39.323,14.98H0Z" transform="translate(5066.111 -7313.432) rotate(-45)" fill="#004d22"/>
    <path id="パス_15168" data-name="パス 15168" d="M19.661,0,39.323,14.98H0Z" transform="translate(5076.704 -7429.994) rotate(45)" fill="#004d22"/>
    <path id="パス_15169" data-name="パス 15169" d="M36,0h.811a36,36,0,0,1,36,36v.811a36,36,0,0,1-36,36H36a36,36,0,0,1-36-36V36A36,36,0,0,1,36,0Z" transform="translate(5130 -7415.844) rotate(45)" fill="#004d22"/>
    <path id="パス_15170" data-name="パス 15170" d="M-29.056-10.532h9.4l1.816,1.648A13.657,13.657,0,0,1-19.1-3.823,7.861,7.861,0,0,1-22.64-.447,18.6,18.6,0,0,1-26.624.9l-.842-1.487a14.912,14.912,0,0,0,3.875-1.157,6.6,6.6,0,0,0,3.3-3.5A11.148,11.148,0,0,0-19.608-9h-9.448Zm11.946-2.593a1.781,1.781,0,0,1,.938.271,1.756,1.756,0,0,1,.681.718,1.791,1.791,0,0,1,.22.857,1.8,1.8,0,0,1-.513,1.267,1.763,1.763,0,0,1-1.34.579,1.74,1.74,0,0,1-.762-.176,1.853,1.853,0,0,1-.74-.615,1.817,1.817,0,0,1-.337-1.062,1.786,1.786,0,0,1,.227-.864,1.881,1.881,0,0,1,.608-.674A1.828,1.828,0,0,1-17.11-13.125Zm-.007.9a.939.939,0,0,0-.513.154.883.883,0,0,0-.432.8.906.906,0,0,0,.256.645.912.912,0,0,0,.688.293.925.925,0,0,0,.432-.1.878.878,0,0,0,.513-.835.914.914,0,0,0-.286-.681A.882.882,0,0,0-17.117-12.224Zm4.1,1.047H-1.529V.132H-13.02Zm1.707,1.56v8.188h8.079V-9.617ZM4.37-12.363H6.048v3.45l7.039-.945L14-8.943a12.147,12.147,0,0,1-1.97,3.669,7.5,7.5,0,0,1-1.875,1.626L8.882-4.709A7.047,7.047,0,0,0,11.05-6.577a5.638,5.638,0,0,0,.908-1.663l-5.911.857v5.054q0,.872.6,1.04a10.4,10.4,0,0,0,2.3.154,41.785,41.785,0,0,0,4.2-.22V.315Q11.16.461,9.051.461A12.941,12.941,0,0,1,5.418.168Q4.37-.256,4.37-1.86V-7.141l-3.076.447-.161-1.56L4.37-8.687Zm13.069,1.04h8.833l.974.857A27.505,27.505,0,0,1,24.3-5.142,39.269,39.269,0,0,1,28.931-.85L27.716.527a51.1,51.1,0,0,0-4.395-4.438A16.874,16.874,0,0,1,17.242.571L16.363-.945a15.1,15.1,0,0,0,4.548-2.776,18,18,0,0,0,3.113-3.831A14.893,14.893,0,0,0,25.2-9.822H17.44Z" transform="translate(5130 -7348.701)" fill="#fcfcfc"/>
    <path id="パス_15171" data-name="パス 15171" d="M-8.19-4.771h1.86V.952H-7.341V.4H-9.919V.952h-.972V-4.771h1.719V-5.6h-2.07v.82a20.705,20.705,0,0,1-.22,3.452A6.371,6.371,0,0,1-12.229.781L-13.039,0a6.228,6.228,0,0,0,.7-2.363,23.769,23.769,0,0,0,.107-2.529V-7.979l.308-.02a33.19,33.19,0,0,0,5.068-.635l.684.8q-1.016.215-2.021.352v1.05H-5.72v.83H-8.19Zm-3.052-1.66h2.07v-.928q-1.27.122-2.07.171Zm3.9,2.441H-9.919V-3.3h2.578ZM-9.919-2.583v.7h2.578v-.7Zm0,1.421V-.4h2.578v-.762Zm-3.252-3.286v5.4h-1.021V-3.154q-.327.371-.811.845l-.459-1.011A10.445,10.445,0,0,0-13.19-6.3l.85.513A13.5,13.5,0,0,1-13.171-4.448ZM-15.383-6.4a6.406,6.406,0,0,0,1.89-2.139l.913.459a8.7,8.7,0,0,1-2.241,2.529Zm18.7,5.288a7.732,7.732,0,0,0,1.563.752l-.659.9a8.869,8.869,0,0,1-2.388-1.7V.952H.8V-1.226A11.741,11.741,0,0,1-1.47.1L-2.2-.659a8.9,8.9,0,0,0,3.1-1.714H-1.06V-4.482H4.028V-2.4l.518.342A9.3,9.3,0,0,1,3.315-1.113Zm-.635-.444a8.414,8.414,0,0,0,.874-.815H2.046q-.063.073-.122.132A7.788,7.788,0,0,0,2.681-1.558ZM-.059-3.765v.693H3.027v-.693ZM-2.671-6.836v1.924h.908v-.757H4.81v.8H-1.743v.908h-.928v2.09q.405-.151,1.011-.42l.137.908A21.14,21.14,0,0,1-4.575-.112l-.376-1.016q.469-.127,1.27-.381V-3.96h-.991v-.952h.991V-6.836h-1.1v-.972h3.2v.972Zm6.88-1.426V-6.1H-1.26V-8.262Zm-4.541.693V-6.8H.327v-.767ZM3.281-6.8v-.767H2.588V-6.8ZM1.128-7.568V-6.8h.659v-.767Zm9.05,4.517H11v1.011h3.4v.879H11v.884h4.248v.9H5.759v-.9H9.924v-.884H6.6v-.879H9.924v-.791H9.187V-5.278H8.137A4.3,4.3,0,0,1,7.8-3.833,3.564,3.564,0,0,1,6.74-2.559l-.752-.7a2.335,2.335,0,0,0,.938-1.094,3.4,3.4,0,0,0,.2-.923H5.817v-.859H7.15V-7.412H6.276v-.84h4.81v.84h-.908v1.274h1.191v.859H10.178Zm-.991-4.36H8.151v1.274H9.187Zm2.5-.41h1v3.594h-1ZM13.7-8.311h1v4.668a.766.766,0,0,1-.278.693,1.437,1.437,0,0,1-.752.146,14.237,14.237,0,0,1-1.45-.078l-.142-.85a13.519,13.519,0,0,0,1.382.1q.19,0,.225-.117a.475.475,0,0,0,.015-.132ZM-26.533,3.65l1.089.1-.229,1.382h2.91v.962h-3.081L-26.1,7.63h2.759v.962h-2.92A9.453,9.453,0,0,0-26.4,9.93a1.388,1.388,0,0,0,.405,1.1,2.364,2.364,0,0,0,1.592.464,2.773,2.773,0,0,0,1.689-.43,1.362,1.362,0,0,0,.522-1.157,4.162,4.162,0,0,0-.293-1.455l1.021-.068a3.863,3.863,0,0,1,.4,1.558,2.246,2.246,0,0,1-.889,1.924,4.1,4.1,0,0,1-2.48.669,3.506,3.506,0,0,1-2.451-.767,2.255,2.255,0,0,1-.664-1.748A9.3,9.3,0,0,1-27.4,8.592h-1.831V7.63h2l.269-1.538h-2.148V5.13h2.319Zm12.277,7.817q2.866-.723,2.866-3.286a3.22,3.22,0,0,0-.576-1.924,2.994,2.994,0,0,0-1.963-1.167A19.021,19.021,0,0,1-14.715,8.8a11.088,11.088,0,0,1-.85,1.909q-.732,1.279-1.665,1.279a1.605,1.605,0,0,1-1.235-.625,3.1,3.1,0,0,1-.562-.972,4.494,4.494,0,0,1-.283-1.606,4.589,4.589,0,0,1,.767-2.563,4.538,4.538,0,0,1,2.017-1.738,4.889,4.889,0,0,1,1.982-.4,4.56,4.56,0,0,1,2.861.9,3.725,3.725,0,0,1,1.445,3.14,4.121,4.121,0,0,1-3.442,4.316Zm-.732-6.416a3.4,3.4,0,0,0-1.445.464,3.9,3.9,0,0,0-.737.635,3.762,3.762,0,0,0-1.016,2.6,2.9,2.9,0,0,0,.43,1.689q.264.376.522.376.352,0,.791-.776A13.459,13.459,0,0,0-14.988,5.052Zm6.037.82a42.947,42.947,0,0,1,5.444-.64,3.528,3.528,0,0,1,2.524.83A2.987,2.987,0,0,1-.113,8.338a3.139,3.139,0,0,1-1.289,2.6,9.234,9.234,0,0,1-4.8,1.372l-.371-1.079a10.581,10.581,0,0,0,3.94-.84A2.336,2.336,0,0,0-1.261,8.265a1.963,1.963,0,0,0-.542-1.5,1.714,1.714,0,0,0-.62-.381,3.4,3.4,0,0,0-1.04-.127,40.041,40.041,0,0,0-5.259.688Zm7.729-.293a8.506,8.506,0,0,0-.972-1.67l.742-.259A8.514,8.514,0,0,1-.47,5.291Zm1.23-.41a7.556,7.556,0,0,0-.962-1.68L-.24,3.26A6.01,6.01,0,0,1,.717,4.852Zm8.435,7.539A56.481,56.481,0,0,0,2.662,8.87Q2,8.484,2,8.06a.781.781,0,0,1,.288-.571A3.679,3.679,0,0,1,2.906,7.1q1.8-1,3.887-2.388.786-.518,1.431-1l.64.84A55.636,55.636,0,0,1,3.7,7.8q-.259.146-.259.244,0,.078.142.176.039.029.454.273,3.35,1.978,5.044,3.237Zm6.032-4.78a5,5,0,0,1-1,1.372,1.267,1.267,0,0,1-.806.4q-.469,0-.757-.635a5.4,5.4,0,0,1-.3-2.08,15.871,15.871,0,0,1,.332-3.091l1.069.161a14.982,14.982,0,0,0-.322,2.793q0,1.538.22,1.538.083,0,.283-.234a4.981,4.981,0,0,0,.659-1.035Zm-.742,3.823A4.7,4.7,0,0,0,15.994,10.5a4.446,4.446,0,0,0,.933-3.086,23.2,23.2,0,0,0-.3-3.521l1.118-.107a22.889,22.889,0,0,1,.322,3.677,4.977,4.977,0,0,1-1.421,3.979,6.891,6.891,0,0,1-2.329,1.23Zm11.711-.283q2.866-.723,2.866-3.286a3.22,3.22,0,0,0-.576-1.924,2.994,2.994,0,0,0-1.963-1.167A19.021,19.021,0,0,1,24.985,8.8a11.088,11.088,0,0,1-.85,1.909Q23.4,11.99,22.471,11.99a1.605,1.605,0,0,1-1.235-.625,3.1,3.1,0,0,1-.562-.972,4.494,4.494,0,0,1-.283-1.606,4.589,4.589,0,0,1,.767-2.563,4.538,4.538,0,0,1,2.017-1.738,4.889,4.889,0,0,1,1.982-.4,4.56,4.56,0,0,1,2.861.9,3.725,3.725,0,0,1,1.445,3.14,4.121,4.121,0,0,1-3.442,4.316Zm-.732-6.416a3.4,3.4,0,0,0-1.445.464,3.9,3.9,0,0,0-.737.635,3.762,3.762,0,0,0-1.016,2.6,2.9,2.9,0,0,0,.43,1.689q.264.376.522.376.352,0,.791-.776A13.459,13.459,0,0,0,24.712,5.052Z" transform="translate(5130 -7379.166)" fill="#fcfcfc"/>
    <path id="パス_15172" data-name="パス 15172" d="M-23.586-1.389A16.156,16.156,0,0,0-19.622.044l-1.151,1.547q-5.8-1.8-7.629-5.484a12.37,12.37,0,0,1-2.145,1.45V-.352q2.619-.492,4.175-.888L-26.32.2a47.692,47.692,0,0,1-8.007,1.6L-34.889.237q1.336-.141,2.417-.3v-1.5A26.688,26.688,0,0,1-36.366-.422l-.9-1.477a23.434,23.434,0,0,0,6.574-2.109H-36.9V-5.432h7.559v-.7h1.907v.7H-19.8v1.424h-2.417l1.222.914A17.444,17.444,0,0,1-23.586-1.389Zm-1.362-.87a13.322,13.322,0,0,0,2.268-1.749h-3.99A8.876,8.876,0,0,0-24.949-2.259Zm-8.728-11.874h1.327V-15.39h1.731v1.257h3.489v1.257h-3.489v.87h4.061v1.274h-4.061v.773h3.489v2.593q0,.659-.3.853a1.932,1.932,0,0,1-.958.158,10.1,10.1,0,0,1-1.424-.07l-.22-1.2a7.281,7.281,0,0,0,1.046.07q.193,0,.237-.079a.476.476,0,0,0,.035-.229v-.923h-1.907v2.637h-1.731V-8.789H-34.1v2.531h-1.67v-3.7h3.419v-.773H-36.9v-1.274h1.608l-1.283-.976a6.752,6.752,0,0,0,1.688-2.32l1.6.343Q-33.456-14.555-33.676-14.133Zm-.791,1.257a7.93,7.93,0,0,1-.747.87h2.865v-.87Zm8.455-1.67h1.749v5.8h-1.749Zm3.4-.844h1.8v7.559A1.488,1.488,0,0,1-21.3-6.5a2.815,2.815,0,0,1-1.371.229A15.555,15.555,0,0,1-24.7-6.39l-.308-1.424a15.81,15.81,0,0,0,1.934.167q.352,0,.413-.149a.855.855,0,0,0,.053-.343Zm18.645.554V-8.5H-14.943v-6.337Zm-9,1.7v3.006h7V-13.14Zm2.689,6.372V1.512h-1.854v-.9h-3.226v1.1h-1.872V-6.768Zm-5.08,1.67v4.043h3.226V-5.1ZM-1.68-6.768V1.714H-3.553V.615H-6.875v1.1H-8.729V-6.768ZM-6.875-5.115v4.061h3.322V-5.115ZM13.141-.589A9.533,9.533,0,0,0,15.066-.4h3.2a6.737,6.737,0,0,0-.571,1.714H15.031a8.821,8.821,0,0,1-3.8-.7A6.314,6.314,0,0,1,8.861-1.5,12.025,12.025,0,0,1,7.13,1.767L5.688.545A11.571,11.571,0,0,0,7.921-5.238l1.74.36q-.088.642-.246,1.424a5.17,5.17,0,0,0,1.942,2.162v-4.43H6.374V-6.768q-.554.272-1.31.633V.105a1.584,1.584,0,0,1-.387,1.213A1.865,1.865,0,0,1,3.4,1.661a11.837,11.837,0,0,1-1.837-.141l-.36-1.9A13.273,13.273,0,0,0,2.788-.22q.272,0,.343-.114a.689.689,0,0,0,.062-.334V-5.317q-1.107.457-1.969.765l-.536-1.8q1.248-.352,2.5-.826V-10.4H.96v-1.749H3.192V-15.39H5.064v3.243h1.67V-10.4H5.064v2.461q.554-.237,1.5-.694l.185,1.38H18.019v1.529H13.141v1.635h3.973V-2.61H13.141Zm3.621-14.1v6.354H7.675v-6.354ZM9.45-13.351v1.125h5.511v-1.125Zm0,2.479v1.187h5.511v-1.187Zm14.154.264V1.714H21.749V-7.075q-.545.844-1.318,1.837L19.57-7.2a19.848,19.848,0,0,0,2.452-4.491A39.755,39.755,0,0,0,23.3-15.53l1.872.448A40.4,40.4,0,0,1,23.6-10.608Zm5.344-1.239h3.243v-3.384H34.1v3.384h2.215v1.731H34.1v4.57h2.821V-3.8H24.193V-5.546h2.9v-4.57H24.878v-1.731h2.215v-3.384h1.854Zm0,1.731v4.57h3.243v-4.57ZM24.087.448a12.709,12.709,0,0,0,3.762-3.867L29.5-2.47a16.621,16.621,0,0,1-3.937,4.342Zm11.25,1.336A27.935,27.935,0,0,0,31.47-2.452L32.9-3.489A23.478,23.478,0,0,1,36.867.431Z" transform="translate(5130 -7436.459)" fill="#343232"/>
    <path id="パス_15173" data-name="パス 15173" d="M-29.343-11.5v-1.582h-7.128v-1.582h16.233v1.582h-7.233V-11.5h5.616v6.741h2.048v1.617h-2.048V-.088a1.489,1.489,0,0,1-.527,1.31,2.548,2.548,0,0,1-1.4.29q-1.116,0-2.883-.105l-.343-1.819a26.061,26.061,0,0,0,2.813.193q.343,0,.4-.141a.976.976,0,0,0,.035-.308V-3.146h-9.185v4.86h-1.907v-4.86H-36.9V-4.764h2.048V-11.5Zm0,1.529h-3.6v1.8h3.6Zm1.872,0v1.8h3.709v-1.8Zm-1.872,3.243h-3.6v1.969h3.6Zm1.872,0v1.969h3.709V-6.732Zm15.613-2.092-.958-1.292A8.518,8.518,0,0,0-9.345-11.3a2.486,2.486,0,0,0,1.134-1.635H-9.854a8.508,8.508,0,0,1-1.415,1.415l-1.459-.9a6.875,6.875,0,0,0,2.435-3.094l1.784.237q-.229.51-.448.932h6.6l.923.826q-.606,1.143-1.318,2.232l-1.652-.536q.1-.149.149-.229a5.646,5.646,0,0,0,.554-.888H-6.409a4.375,4.375,0,0,0,1.2,1.3A10.318,10.318,0,0,0-.846-9.888l-.879,1.582a13.094,13.094,0,0,1-1.424-.422v7.453H-6.365A43.107,43.107,0,0,1-1.056.325L-2.586,1.784Q-5.574.545-8.351-.3l1.143-.976h-4.869l1.151.861a24.37,24.37,0,0,1-5.836,2.32L-18.054.378a23.482,23.482,0,0,0,5.177-1.652h-2.874v-7.55Zm.105,0h8.358A7.541,7.541,0,0,1-7.112-11.5Q-8.307-9.492-11.753-8.824Zm6.662,1.169h-8.736v.94h8.736Zm0,2.057h-8.736v.958h8.736Zm0,2.092h-8.736V-2.5h8.736Zm-8.859-8.93A23.01,23.01,0,0,0-17.3-14.054l1.081-1.3a19.58,19.58,0,0,1,3.384,1.512Zm-4.1,2.54a33.178,33.178,0,0,0,5.019-2.268l.6,1.345a36.135,36.135,0,0,1-4.825,2.5Zm30.783-1.459h4.087v6.82H13.449V.29a1.435,1.435,0,0,1-.4,1.16,1.878,1.878,0,0,1-1.151.264,10.85,10.85,0,0,1-1.986-.185L9.67-.123a11.058,11.058,0,0,0,1.582.158q.334,0,.4-.158a1.335,1.335,0,0,0,.035-.36V-4.535H8.316v-6.82h2.654q.325-.967.466-1.591H7.314v4.772a28.639,28.639,0,0,1-.4,5.238A13.119,13.119,0,0,1,5.082,1.7L3.676.308a14.256,14.256,0,0,0,1.8-7.646v-7.225H17.808v1.617H13.335A13.385,13.385,0,0,1,12.728-11.355Zm2.3,1.406H10.048v1.327h4.983ZM10.048-7.269v1.362h4.983V-7.269ZM3.834-11.355a13.807,13.807,0,0,0-2.54-2.725l1.354-1.187A11.2,11.2,0,0,1,5.2-12.727ZM3.35-6.838A20.789,20.789,0,0,0,.775-9.633L2.164-10.89A17.545,17.545,0,0,1,4.757-8.209ZM.977.4A25.552,25.552,0,0,0,3.148-5.854l1.608.976Q4.159-2.3,3.667-.835A22.61,22.61,0,0,1,2.612,1.749ZM6.514-.2A10.166,10.166,0,0,0,8.729-3.964l1.679.51A12.083,12.083,0,0,1,7.956,1.028ZM16.613.879a21.828,21.828,0,0,0-2.355-4.14L15.717-4.1A23.459,23.459,0,0,1,18.239-.237ZM24.949-11.4V1.547H22.936V-8.068a22.52,22.52,0,0,1-2.3,2.795L19.622-7.2a22.19,22.19,0,0,0,4.966-8.341l1.96.51A32.234,32.234,0,0,1,24.949-11.4ZM29.9-9.492A28.413,28.413,0,0,0,34.7-12.313l1.512,1.441A32.533,32.533,0,0,1,29.9-7.611v6.064a.6.6,0,0,0,.554.65,8.987,8.987,0,0,0,1.468.079A17.081,17.081,0,0,0,33.79-.905a.728.728,0,0,0,.738-.589,17.522,17.522,0,0,0,.264-2.936l2.013.615a18,18,0,0,1-.316,3.3A1.762,1.762,0,0,1,35.311.861a10.206,10.206,0,0,1-2.944.308q-3.155,0-3.841-.448a1.717,1.717,0,0,1-.606-1.547V-15.012H29.9ZM-29.343,10.5V8.913h-7.128V7.331h16.233V8.913h-7.233V10.5h5.616v6.741h2.048v1.617h-2.048v3.059a1.489,1.489,0,0,1-.527,1.31,2.548,2.548,0,0,1-1.4.29q-1.116,0-2.883-.105l-.343-1.819a26.061,26.061,0,0,0,2.813.193q.343,0,.4-.141a.976.976,0,0,0,.035-.308V18.854h-9.185v4.86h-1.907v-4.86H-36.9V17.236h2.048V10.5Zm0,1.529h-3.6v1.8h3.6Zm1.872,0v1.8h3.709v-1.8Zm-1.872,3.243h-3.6v1.969h3.6Zm1.872,0v1.969h3.709V15.268Zm22.785,5.344A16.156,16.156,0,0,0-.722,22.044l-1.151,1.547q-5.8-1.8-7.629-5.484a12.37,12.37,0,0,1-2.145,1.45v2.092q2.619-.492,4.175-.888L-7.42,22.2a47.692,47.692,0,0,1-8.007,1.6l-.562-1.564q1.336-.141,2.417-.3v-1.5a26.688,26.688,0,0,1-3.894,1.143l-.9-1.477a23.434,23.434,0,0,0,6.574-2.109H-18V16.568h7.559v-.7h1.907v.7H-.9v1.424H-3.315l1.222.914A17.444,17.444,0,0,1-4.686,20.611Zm-1.362-.87a13.322,13.322,0,0,0,2.268-1.749h-3.99A8.876,8.876,0,0,0-6.049,19.741ZM-14.776,7.867h1.327V6.61h1.731V7.867h3.489V9.124h-3.489v.87h4.061v1.274h-4.061v.773h3.489v2.593q0,.659-.3.853a1.932,1.932,0,0,1-.958.158,10.1,10.1,0,0,1-1.424-.07l-.22-1.2a7.281,7.281,0,0,0,1.046.07q.193,0,.237-.079a.476.476,0,0,0,.035-.229v-.923h-1.907v2.637h-1.731V13.211H-15.2v2.531h-1.67v-3.7h3.419v-.773H-18V9.994h1.608l-1.283-.976A6.752,6.752,0,0,0-15.989,6.7l1.6.343Q-14.556,7.445-14.776,7.867Zm-.791,1.257a7.93,7.93,0,0,1-.747.87h2.865v-.87Zm8.455-1.67h1.749v5.8H-7.112Zm3.4-.844h1.8v7.559A1.488,1.488,0,0,1-2.4,15.5a2.815,2.815,0,0,1-1.371.229A15.555,15.555,0,0,1-5.8,15.61l-.308-1.424a15.81,15.81,0,0,0,1.934.167q.352,0,.413-.149a.855.855,0,0,0,.053-.343Zm18.645.554V13.5H3.957V7.164Zm-9,1.7v3.006h7V8.86Zm2.689,6.372v8.279H6.769v-.9H3.544v1.1H1.672V15.232ZM3.544,16.9v4.043H6.769V16.9Zm13.676-1.67v8.481H15.347v-1.1H12.025v1.1H10.171V15.232Zm-5.194,1.652v4.061h3.322V16.885ZM24.949,10.6V23.547H22.936V13.932a22.52,22.52,0,0,1-2.3,2.795L19.622,14.8a22.19,22.19,0,0,0,4.966-8.341l1.96.51A32.234,32.234,0,0,1,24.949,10.6ZM29.9,12.508A28.413,28.413,0,0,0,34.7,9.687l1.512,1.441A32.533,32.533,0,0,1,29.9,14.389v6.064a.6.6,0,0,0,.554.65,8.987,8.987,0,0,0,1.468.079,17.081,17.081,0,0,0,1.872-.088.728.728,0,0,0,.738-.589,17.522,17.522,0,0,0,.264-2.936l2.013.615a18,18,0,0,1-.316,3.3,1.762,1.762,0,0,1-1.178,1.371,10.206,10.206,0,0,1-2.944.308q-3.155,0-3.841-.448a1.717,1.717,0,0,1-.606-1.547V6.988H29.9Z" transform="translate(5040.008 -7365.201)" fill="#343232"/>
    <path id="パス_15176" data-name="パス 15176" d="M-31.444-8.033a20.319,20.319,0,0,0-1.8-1.617l1.116-.949a12.736,12.736,0,0,1,1.907,1.749,13.191,13.191,0,0,0,1.529-1.389h-2.681V-11.61h5.186a11.4,11.4,0,0,0,1.2,1.336A13.277,13.277,0,0,0-23.7-11.795l1.257.888A13,13,0,0,1-23.92-9.4q.466.343.993.659a10.722,10.722,0,0,0,1.354-1.591l1.362.861a14.857,14.857,0,0,1-1.424,1.415q.809.4,2.021.844l-1.011,1.389q-1.345-.571-2.558-1.23v.782H-24.4v1.8h4.28v1.477H-24.4V-.554q0,.378.272.457a3.646,3.646,0,0,0,.932.079,2.619,2.619,0,0,0,.976-.114q.36-.185.36-1.863l1.705.519A4.2,4.2,0,0,1-20.756,1q-.58.606-2.725.606A5.066,5.066,0,0,1-25.537,1.3a1.08,1.08,0,0,1-.58-1.063V-2.988h-2a4.915,4.915,0,0,1-1.248,3.2,7.548,7.548,0,0,1-3.437,1.7L-33.861.378A6.237,6.237,0,0,0-30.9-.782a3.3,3.3,0,0,0,1.081-2.206h-3.7V-4.465h3.744v-1.8h-.914V-6.75a17.357,17.357,0,0,1-2.4,1.151L-33.87-6.82a32.757,32.757,0,0,1-.343,4.658,14.175,14.175,0,0,1-1.2,3.894L-37.042.554A13.792,13.792,0,0,0-35.988-3.34a39.124,39.124,0,0,0,.237-4.711V-13.9h6.68V-15.39h1.986V-13.9h6.891v1.6H-33.861v4.553q0,.536-.009.826A13.473,13.473,0,0,0-31.444-8.033Zm5.326,1.767h-1.96v1.8h1.96Zm-3.129-1.441h4.975a13.5,13.5,0,0,1-2.689-2.276A11.22,11.22,0,0,1-29.246-7.708Zm14.4,1.318A22.834,22.834,0,0,1-17.1-1.705l-1.081-1.89a19.193,19.193,0,0,0,3.155-6.267h-2.83V-11.61h3.006V-15.39h1.907v3.779h2.013v1.749h-2.013v1.38A21.68,21.68,0,0,1-9.995-5.792l-1.09,1.617a20.14,20.14,0,0,0-1.854-2.232V1.714h-1.907Zm9.571-1.45a17.986,17.986,0,0,1-5.414,6.521l-1.266-1.362a17.909,17.909,0,0,0,5.9-7.181h-4.236V-11.61h5.019V-15.39H-3.4v3.779H-.9v1.749H-3.4V-.22A1.817,1.817,0,0,1-3.781,1.1a2.29,2.29,0,0,1-1.582.4,24.31,24.31,0,0,1-2.5-.123L-8.211-.466q1.239.123,2.25.123.466,0,.571-.114a.75.75,0,0,0,.114-.5Zm18.381-2.672V-3.6H5.759v-6.908Zm-5.528,1.6V-5.2h3.691V-8.912Zm9.466-5.52V1.617H15.066V.466H3.834V1.617H1.874V-14.432ZM3.834-12.718v11.4H15.066v-11.4Zm20.772,9.51A42.471,42.471,0,0,1,20.2-1.6l-.615-1.819q.483-.114,1.046-.264v-9.334h1.819V-4.21q1.072-.343,2.153-.738V-15.39H26.46v17.1H24.606Zm8.534-.633a15.458,15.458,0,0,0,3.9,3.5L36.005,1.564a17.721,17.721,0,0,1-3.964-3.806,15.522,15.522,0,0,1-4.192,3.823L26.566-.132a13.054,13.054,0,0,0,4.307-3.823,19.368,19.368,0,0,1-1.45-3.41,26.472,26.472,0,0,1-1.169-4.825l-.018-.105h-1.2V-14.08h8.42l.888.976A29.81,29.81,0,0,1,33.14-3.841ZM32.024-5.651A21.151,21.151,0,0,0,34.291-12.3H30.029A22.114,22.114,0,0,0,32.024-5.651Z" transform="translate(5128.07 -7281.127)" fill="#343232"/>
    <path id="パス_15177" data-name="パス 15177" d="M-32.017-10.564v-1.477H-36.86v-1.564h4.843V-15.39H-30.2v1.784h5.414v1.564H-30.2v1.477h4.57v5.581h-4.6A7.307,7.307,0,0,1-30.892-2.1,21.329,21.329,0,0,0-24.564-.123l-.923,1.837a25.907,25.907,0,0,1-6.39-2.443,10.291,10.291,0,0,1-4.57,2.584L-37.475.308a7.927,7.927,0,0,0,4.034-1.986q-1.257-.835-2.733-2.03l1.266-1.055a24.4,24.4,0,0,0,2.452,1.775,5.9,5.9,0,0,0,.483-2h-4.544v-5.581Zm0,1.477h-2.716V-6.46h2.716Zm1.819,0V-6.46h2.769V-9.088Zm-7.655-2.065V1.714h-1.872V-7.3q-.571.976-1.477,2.215l-.9-1.978a20.133,20.133,0,0,0,2.452-4.658q.6-1.564,1.222-3.788l1.89.483Q-37.211-12.762-37.853-11.153Zm30.581-3.322V-.422A2.078,2.078,0,0,1-7.6.879a2.052,2.052,0,0,1-1.635.5q-1.371,0-2.435-.105l-.343-1.89A19.18,19.18,0,0,0-9.7-.439q.369,0,.439-.167A.976.976,0,0,0-9.214-.94V-4.412h-4.307V.9h-1.89V-4.412h-4.122a17.516,17.516,0,0,1-.352,3.032,8.568,8.568,0,0,1-1.45,3.1L-22.987.36a7.4,7.4,0,0,0,1.345-3.278,15.5,15.5,0,0,0,.185-2.514v-9.044Zm-12.243,1.7v2.54h4.1v-2.54Zm0,4.14v2.61h4.1V-8.64Zm10.3,2.61V-8.64h-4.307v2.61Zm0-4.21v-2.54h-4.307v2.54ZM.018-8.824a1.9,1.9,0,0,1,1.239.457,1.89,1.89,0,0,1,.729,1.529,1.892,1.892,0,0,1-.325,1.063,1.875,1.875,0,0,1-1.67.914,1.905,1.905,0,0,1-.905-.229,1.8,1.8,0,0,1-.58-.466,1.958,1.958,0,0,1-.483-1.3,1.876,1.876,0,0,1,.853-1.617A1.966,1.966,0,0,1,.018-8.824Zm22.011-1.494V-.035a1.921,1.921,0,0,1-.281,1.16,1.772,1.772,0,0,1-1.477.483,21.409,21.409,0,0,1-2.417-.132l-.36-1.819a15.034,15.034,0,0,0,2.057.185q.4,0,.51-.176a.733.733,0,0,0,.079-.387V-2.953H13.468V1.714h-1.89V-10.318h4.228V-15.39h1.907v5.071Zm-1.89,1.529H13.468v1.441h6.671Zm0,2.883H13.468v1.512h6.671ZM9.329-11.145A16.748,16.748,0,0,0,6.34-13.983L7.668-15.3a13.259,13.259,0,0,1,2.971,2.7ZM8.678-6.7A20.144,20.144,0,0,0,5.76-9.554l1.318-1.354a15.032,15.032,0,0,1,2.979,2.733ZM6.121.158a26.772,26.772,0,0,0,3.094-5.7l1.529,1.187A34,34,0,0,1,7.755,1.67ZM12.73-10.7a19.276,19.276,0,0,0-1.679-3.524l1.749-.756A19.362,19.362,0,0,1,14.418-11.5Zm6.407-.589a17,17,0,0,0,1.635-3.832l1.872.738a23.025,23.025,0,0,1-1.89,3.814Zm8.924,7.479A16.274,16.274,0,0,1,25.5.185L24.52-1.6a14.748,14.748,0,0,0,2-2.232A14.232,14.232,0,0,0,27.78-6.064h-3.1V-7.576h3.384V-8.982h-2.61v-1.459h2.61v-1.31H25.038v-1.512h3.023V-15.39h1.784v2.127h2.663v1.512H29.846v1.31H32.2v1.459H29.846v1.406h3.041v1.512H29.846v.809a22.779,22.779,0,0,1,3.129,2.25l-.949,1.7a26.485,26.485,0,0,0-2.18-2.109V1.714H28.062Zm9.044-8.93v2.549l4.052-.466.105,1.6-4.157.5V-6.2l4.676-.519L41.9-4.983l-4.79.536V-.914q0,.422.308.519a3.621,3.621,0,0,0,.879.062q1.345,0,1.564-.264a6.263,6.263,0,0,0,.378-2.61l1.679.58A15.27,15.27,0,0,1,41.614.1a1.509,1.509,0,0,1-1.169,1.151,9.128,9.128,0,0,1-2.118.193A5.876,5.876,0,0,1,35.77,1.1,1.34,1.34,0,0,1,35.3-.123V-4.245L32.263-3.9l-.185-1.731,3.226-.36V-8.332l-2.646.325L32.518-9.65,35.3-9.976v-2.268q-.967.237-2.092.439l-.642-1.406a24.8,24.8,0,0,0,6.8-2.215l1.116,1.406A27.436,27.436,0,0,1,37.106-12.735Z" transform="translate(5219.992 -7355.201)" fill="#343232"/>
  </g>
</svg>
